<svg xmlns="http://www.w3.org/2000/svg" width="25" height="24" viewBox="0 0 25 24" fill="none">
  <path d="M12.5012 1.5C6.69925 1.49766 2 6.17757 2 11.9538C2 16.5215 4.93967 20.4043 9.03363 21.8303C9.58496 21.9682 9.5005 21.5778 9.5005 21.3113V19.4997C6.31684 19.8713 6.1878 17.7722 5.9743 17.4215C5.54262 16.6875 4.52206 16.5005 4.82706 16.1498C5.55201 15.7782 6.29103 16.2434 7.14736 17.5033C7.76673 18.4173 8.97497 18.2631 9.58731 18.1111C9.72104 17.5618 10.0073 17.0709 10.4014 16.6898C7.10278 16.1008 5.72796 14.0951 5.72796 11.7107C5.72796 10.5536 6.11038 9.48998 6.86113 8.63207C6.38253 7.21781 6.90571 6.00693 6.97609 5.82693C8.33918 5.70537 9.75623 6.79938 9.8665 6.88587C10.6407 6.67782 11.5252 6.56796 12.5153 6.56796C13.51 6.56796 14.3968 6.6825 15.1781 6.89288C15.4432 6.69185 16.757 5.75213 18.0239 5.86667C18.0919 6.04667 18.6034 7.2295 18.1529 8.62506C18.9131 9.4853 19.3002 10.5583 19.3002 11.7177C19.3002 14.1068 17.916 16.1148 14.608 16.6945C15.1593 17.2368 15.5018 17.9896 15.5018 18.8217V21.4516C15.5206 21.662 15.5018 21.87 15.8538 21.87C20.0087 20.4744 23 16.5636 23 11.9562C23 6.17757 18.2984 1.5 12.5012 1.5Z" fill="#7B7782"/>
</svg>
