<svg xmlns="http://www.w3.org/2000/svg" width="25" height="24" viewBox="0 0 25 24" fill="none">
  <g clip-path="url(#clip0_339_263)">
    <path fill-rule="evenodd" clip-rule="evenodd" d="M2.14987 11.5623C8.59231 8.75543 12.8883 6.90497 15.0378 6.01092C21.175 3.45823 22.4503 3.0148 23.2815 3.00016C23.4643 2.99694 23.8731 3.04224 24.1379 3.25709C24.3614 3.43851 24.4229 3.68357 24.4524 3.85557C24.4818 4.02757 24.5185 4.41939 24.4893 4.72555C24.1568 8.21999 22.7177 16.7001 21.9856 20.6139C21.6758 22.27 21.0658 22.8253 20.4753 22.8796C19.1919 22.9977 18.2174 22.0315 16.9744 21.2167C15.0294 19.9417 13.9305 19.148 12.0425 17.9038C9.86064 16.466 11.2751 15.6757 12.5185 14.3842C12.844 14.0462 18.4985 8.90304 18.6079 8.43647C18.6216 8.37812 18.6343 8.16061 18.5051 8.04576C18.3759 7.93091 18.1851 7.97018 18.0475 8.00142C17.8524 8.04569 14.7452 10.0995 8.72584 14.1627C7.84386 14.7683 7.045 15.0634 6.32924 15.0479C5.54018 15.0309 4.02233 14.6018 2.89397 14.235C1.50999 13.7851 0.410032 13.5473 0.505814 12.7832C0.555703 12.3853 1.10372 11.9783 2.14987 11.5623Z" fill="#7B7782"/>
  </g>
  <defs>
    <clipPath id="clip0_339_263">
      <rect width="24" height="24" fill="white" transform="translate(0.5)"/>
    </clipPath>
  </defs>
</svg>
