<svg xmlns="http://www.w3.org/2000/svg" width="25" height="24" viewBox="0 0 25 24" fill="none">
  <g clip-path="url(#clip0_339_259)">
    <path d="M14.04 12.0002C14.0453 13.8019 13.3354 15.5321 12.066 16.8108C10.7967 18.0896 9.07177 18.8122 7.27003 18.8202C5.46829 18.8122 3.74335 18.0896 2.47402 16.8108C1.20468 15.5321 0.494713 13.8019 0.50003 12.0002C0.494713 10.1984 1.20468 8.46822 2.47402 7.18951C3.74335 5.91079 5.46829 5.18812 7.27003 5.18018C9.07177 5.18812 10.7967 5.91079 12.066 7.18951C13.3354 8.46822 14.0453 10.1984 14.04 12.0002ZM21.46 12.0002C21.46 15.5402 19.95 18.4202 18.08 18.4202C16.21 18.4202 14.69 15.5402 14.69 12.0002C14.69 8.46018 16.21 5.58018 18.08 5.58018C19.95 5.58018 21.46 8.46018 21.46 12.0002ZM24.5 12.0002C24.5 15.1702 23.97 17.7502 23.31 17.7502C22.65 17.7502 22.12 15.1702 22.12 12.0002C22.12 8.83018 22.65 6.25018 23.31 6.25018C23.97 6.25018 24.5 8.83018 24.5 12.0002Z" fill="#7B7782"/>
  </g>
  <defs>
    <clipPath id="clip0_339_259">
      <rect width="24" height="24" fill="white" transform="translate(0.5)"/>
    </clipPath>
  </defs>
</svg>
