<svg xmlns="http://www.w3.org/2000/svg" width="25" height="24" viewBox="0 0 25 24" fill="none">
  <path fill-rule="evenodd" clip-rule="evenodd" d="M20.3262 5.14355C22.8673 8.73934 24.1223 12.7953 23.6531 17.4646C23.6512 17.4844 23.6405 17.5025 23.6236 17.5144C21.6993 18.8743 19.8349 19.6997 17.9966 20.247C17.9673 20.2556 17.9355 20.2452 17.9176 20.2213C17.4929 19.6526 17.107 19.053 16.769 18.4234C16.7496 18.3863 16.7673 18.3416 16.8072 18.327C17.4201 18.1048 18.0028 17.8384 18.5634 17.5231C18.6075 17.4982 18.6103 17.4373 18.5695 17.408C18.4506 17.323 18.3327 17.2337 18.22 17.1444C18.1989 17.1279 18.1705 17.1246 18.1465 17.1357C14.5075 18.7531 10.521 18.7531 6.83891 17.1357C6.815 17.1254 6.78659 17.129 6.76606 17.1452C6.65356 17.2345 6.53544 17.323 6.4176 17.408C6.37681 17.4373 6.38019 17.4982 6.42463 17.5231C6.98516 17.8325 7.56791 18.1048 8.1799 18.3281C8.21956 18.3427 8.2384 18.3863 8.21872 18.4234C7.88797 19.0538 7.50209 19.6534 7.06953 20.2221C7.05069 20.2451 7.01975 20.2557 6.9905 20.247C5.16097 19.6997 3.29657 18.8743 1.37226 17.5144C1.35623 17.5025 1.3447 17.4836 1.34301 17.4638C0.950948 13.4249 1.74998 9.33539 4.66682 5.14274C4.67385 5.13164 4.68454 5.12298 4.69691 5.11784C6.13213 4.48389 7.66972 4.0175 9.27678 3.75114C9.30603 3.74681 9.33528 3.75981 9.35047 3.78471C9.54903 4.12307 9.776 4.55698 9.92956 4.91157C11.6235 4.66254 13.3439 4.66254 15.0733 4.91157C15.2269 4.56455 15.446 4.12307 15.6437 3.78471C15.6581 3.75937 15.6879 3.74583 15.7174 3.75114C17.3253 4.01831 18.8629 4.4847 20.297 5.11784C20.3096 5.12298 20.32 5.13164 20.3262 5.14355ZM10.7909 12.823C10.8086 11.629 9.90413 10.641 8.76873 10.641C7.64261 10.641 6.74683 11.6203 6.74683 12.823C6.74683 14.0254 7.66032 15.0047 8.76873 15.0047C9.89513 15.0047 10.7909 14.0254 10.7909 12.823ZM18.2669 12.823C18.2846 11.629 17.3801 10.641 16.245 10.641C15.1186 10.641 14.2228 11.6203 14.2228 12.823C14.2228 14.0254 15.1363 15.0047 16.245 15.0047C17.3801 15.0047 18.2669 14.0254 18.2669 12.823Z" fill="#7B7782"/>
</svg>
