<svg xmlns="http://www.w3.org/2000/svg" width="25" height="24" viewBox="0 0 25 24" fill="none">
  <g clip-path="url(#clip0_339_261)">
    <path fill-rule="evenodd" clip-rule="evenodd" d="M23.2466 4.83407C23.619 5.20883 23.8864 5.67482 24.0221 6.18541C24.5239 8.06996 24.5239 12 24.5239 12C24.5239 12 24.5239 15.93 24.0221 17.8145C23.8864 18.3251 23.619 18.7911 23.2466 19.1658C22.8743 19.5406 22.41 19.811 21.9003 19.95C20.0239 20.4545 12.5239 20.4545 12.5239 20.4545C12.5239 20.4545 5.02393 20.4545 3.14756 19.95C2.63786 19.811 2.17358 19.5406 1.80121 19.1658C1.42884 18.7911 1.16143 18.3251 1.02574 17.8145C0.523926 15.93 0.523926 12 0.523926 12C0.523926 12 0.523926 8.06996 1.02574 6.18541C1.16143 5.67482 1.42884 5.20883 1.80121 4.83407C2.17358 4.4593 2.63786 4.18891 3.14756 4.04996C5.02393 3.54541 12.5239 3.54541 12.5239 3.54541C12.5239 3.54541 20.0239 3.54541 21.9003 4.04996C22.41 4.18891 22.8743 4.4593 23.2466 4.83407ZM16.3421 12L10.0693 8.43134V15.5686L16.3421 12Z" fill="#7B7782"/>
  </g>
  <defs>
    <clipPath id="clip0_339_261">
      <rect width="24" height="24" fill="white" transform="translate(0.5)"/>
    </clipPath>
  </defs>
</svg>
