<svg width="17" height="16" viewBox="0 0 17 16" fill="none" xmlns="http://www.w3.org/2000/svg">
<g id="Icon">
<path id="Union" d="M6.96719 12.7086C5.87784 12.1714 5.00845 11.2731 4.50717 10.1667C4.29699 9.70284 4.15697 9.21441 4.08841 8.71709L5.46136 8.71709C5.87338 8.71709 6.10857 8.24671 5.86136 7.9171L3.86136 5.25043C3.66136 4.98376 3.26136 4.98376 3.06136 5.25043L1.06136 7.9171C0.814143 8.24671 1.04933 8.7171 1.46136 8.71709L2.5774 8.71709C2.65326 9.42712 2.84183 10.1258 3.14088 10.7858C3.78538 12.2082 4.90316 13.3632 6.30376 14.0539C7.70436 14.7446 9.30112 14.9283 10.822 14.5737C12.3428 14.2191 13.6937 13.3481 14.6443 12.1092C15.595 10.8702 16.0867 9.33997 16.0356 7.77916C15.9845 6.21835 15.3938 4.72354 14.3641 3.54943C13.3345 2.37532 11.9295 1.59456 10.3888 1.34017C8.84796 1.08578 7.26663 1.37352 5.91421 2.15434C5.55549 2.36145 5.43258 2.82014 5.63969 3.17886C5.84679 3.53758 6.30549 3.66049 6.66421 3.45338C7.71609 2.84607 8.94601 2.62228 10.1444 2.82013C11.3428 3.01799 12.4355 3.62525 13.2364 4.53845C14.0372 5.45164 14.4967 6.61427 14.5364 7.82824C14.5761 9.0422 14.1937 10.2324 13.4543 11.196C12.7149 12.1596 11.6642 12.8371 10.4814 13.1129C9.29847 13.3887 8.05655 13.2458 6.96719 12.7086Z" fill="#8B60F7"/>
</g>
</svg>
