<svg width="16" height="16" viewBox="0 0 16 16" fill="none" xmlns="http://www.w3.org/2000/svg">
<g id="Icon">
<path id="Union" d="M2.34309 2.34273C2.0502 2.63562 2.0502 3.11049 2.34309 3.40339L6.93928 7.99957L2.34308 12.5958C2.05019 12.8887 2.05019 13.3635 2.34308 13.6564C2.63598 13.9493 3.11085 13.9493 3.40374 13.6564L7.99994 9.06023L12.5961 13.6564C12.889 13.9493 13.3639 13.9493 13.6568 13.6564C13.9497 13.3635 13.9497 12.8887 13.6568 12.5958L9.0606 7.99957L13.6568 3.40338C13.9497 3.11048 13.9497 2.63561 13.6568 2.34272C13.3639 2.04982 12.889 2.04982 12.5961 2.34272L7.99994 6.93891L3.40375 2.34273C3.11086 2.04983 2.63598 2.04983 2.34309 2.34273Z" fill="white"/>
</g>
</svg>
