<svg width="16" height="16" viewBox="0 0 16 16" fill="none" xmlns="http://www.w3.org/2000/svg">
<g id="Icon">
<path id="Union" d="M2.34321 2.34315C2.05032 2.63604 2.05032 3.11091 2.34321 3.40381L6.9394 7.99999L2.34321 12.5962C2.05031 12.8891 2.05031 13.364 2.34321 13.6568C2.6361 13.9497 3.11097 13.9497 3.40387 13.6568L8.00006 9.06065L12.5963 13.6569C12.8892 13.9497 13.364 13.9497 13.6569 13.6569C13.9498 13.364 13.9498 12.8891 13.6569 12.5962L9.06072 7.99999L13.6569 3.4038C13.9498 3.11091 13.9498 2.63603 13.6569 2.34314C13.364 2.05024 12.8891 2.05025 12.5963 2.34314L8.00006 6.93933L3.40387 2.34315C3.11098 2.05025 2.6361 2.05025 2.34321 2.34315Z" fill="white"/>
</g>
</svg>
