<svg width="16" height="16" viewBox="0 0 16 16" fill="none" xmlns="http://www.w3.org/2000/svg">
<g id="Icon/Special/Tokens">
<circle id="Circle" cx="8" cy="8" r="8" fill="white"/>
<path id="Shape" fill-rule="evenodd" clip-rule="evenodd" d="M8.34326 5.16769C8.88657 5.16769 9.32701 4.72725 9.32701 4.18394C9.32701 3.64063 8.88657 3.2002 8.34326 3.2002C7.79995 3.2002 7.35952 3.64063 7.35952 4.18394C7.35952 4.72725 7.79995 5.16769 8.34326 5.16769ZM12.7871 8.0002C12.7871 9.10555 11.891 10.0016 10.7857 10.0016C9.68031 10.0016 8.78425 9.10555 8.78425 8.0002C8.78425 6.89485 9.68031 5.99878 10.7857 5.99878C11.891 5.99878 12.7871 6.89485 12.7871 8.0002ZM9.32701 11.8165C9.32701 12.3598 8.88657 12.8002 8.34326 12.8002C7.79995 12.8002 7.35952 12.3598 7.35952 11.8165C7.35952 11.2731 7.79995 10.8327 8.34326 10.8327C8.88657 10.8327 9.32701 11.2731 9.32701 11.8165ZM3.3058 5.23553C3.01747 5.99878 3.42453 6.8638 4.18778 7.15214C4.69662 7.33871 5.23937 7.23694 5.62948 6.91468C5.98566 6.66027 6.44361 6.57546 6.8846 6.74507C7.17294 6.84684 7.39344 7.03341 7.54609 7.27087L7.56305 7.30479C7.63089 7.40656 7.73266 7.50832 7.86835 7.54224C8.17365 7.66097 8.52983 7.49136 8.6316 7.18606C8.75033 6.88076 8.58072 6.52458 8.27542 6.42281C8.13973 6.37193 8.00404 6.37193 7.86835 6.42281C7.59697 6.50762 7.29167 6.50762 7.00333 6.40585C6.5793 6.2532 6.29096 5.91398 6.17224 5.52387L6.15527 5.48995C6.15527 5.47299 6.15527 5.45603 6.13831 5.45603V5.4221C6.01959 4.94719 5.69732 4.54012 5.20545 4.37051C4.4422 4.06521 3.57718 4.45532 3.3058 5.23553ZM4.18778 8.84825C3.42453 9.13659 3.01747 10.0016 3.3058 10.7649C3.59414 11.5451 4.4422 11.9352 5.20545 11.6299C5.69732 11.4603 6.01959 11.0532 6.13831 10.5783V10.5444C6.15527 10.5444 6.15527 10.5274 6.15527 10.5104L6.17224 10.4765C6.29096 10.0864 6.5793 9.74719 7.00333 9.59454C7.29167 9.49277 7.59697 9.49277 7.86835 9.57758C8.00404 9.62846 8.13973 9.62846 8.27542 9.57758C8.58072 9.47581 8.75033 9.11963 8.6316 8.81433C8.52983 8.50903 8.17365 8.33942 7.86835 8.45815C7.73266 8.49207 7.63089 8.59383 7.56305 8.6956L7.54609 8.72952C7.39344 8.96698 7.17294 9.15355 6.8846 9.25532C6.44361 9.42493 5.98566 9.34012 5.62948 9.08571C5.23937 8.76345 4.69662 8.66168 4.18778 8.84825Z" fill="#266CD3"/>
</g>
</svg>
