<svg width="14" height="15" viewBox="0 0 14 15" fill="none" xmlns="http://www.w3.org/2000/svg">
<g id="Icon">
<path id="Subtract" fill-rule="evenodd" clip-rule="evenodd" d="M13.0621 10.5625L8.51547 2.6875C7.8419 1.52084 6.15796 1.52083 5.48438 2.6875L0.93775 10.5625C0.264176 11.7292 1.10614 13.1875 2.45329 13.1875H11.5466C12.8937 13.1875 13.7357 11.7292 13.0621 10.5625ZM6.99993 5.3125C7.36236 5.3125 7.65618 5.60631 7.65618 5.96875V9.03125C7.65618 9.39369 7.36236 9.6875 6.99993 9.6875C6.63749 9.6875 6.34368 9.39369 6.34368 9.03125V5.96875C6.34368 5.60631 6.63749 5.3125 6.99993 5.3125ZM7.65618 10.7812C7.65618 11.1437 7.36236 11.4375 6.99993 11.4375C6.63749 11.4375 6.34368 11.1437 6.34368 10.7812C6.34368 10.4188 6.63749 10.125 6.99993 10.125C7.36236 10.125 7.65618 10.4188 7.65618 10.7812Z" fill="#BE283A"/>
</g>
</svg>
