<svg width="16" height="16" viewBox="0 0 16 16" fill="none" xmlns="http://www.w3.org/2000/svg">
<g id="Icon">
<path id="Vector" d="M11.5478 4.14961C11.7575 5.83123 10.2183 6.59884 10.2183 6.59884C10.2886 0.929809 5.87976 1.00004 5.87976 1.00004C6.78882 1.6994 7.83835 4.21885 5.17941 5.82826L5.06368 5.89948C0.984271 8.47137 2.90725 14.8348 7.72657 15C7.78658 15 7.84692 15 7.90759 15C10.8059 15 13.1107 12.6497 13.1562 9.75138C13.1958 7.16663 11.5478 4.14961 11.5478 4.14961ZM8.81467 13.6151C7.94748 13.9015 7.00205 13.8316 6.18637 13.4209C5.37069 13.0102 4.75157 12.2923 4.46522 11.4251C4.17887 10.5579 4.24873 9.61246 4.65945 8.79678C5.07016 7.9811 5.78808 7.36198 6.65528 7.07563C6.65528 7.07563 4.85892 9.10049 6.10034 10.885C6.10034 10.885 5.93911 9.7306 6.97775 9.18952C6.97775 9.18952 5.85008 12.617 9.03229 13.5419L8.81467 13.6151Z" fill="url(#paint0_linear_2954_15188)"/>
</g>
<defs>
<linearGradient id="paint0_linear_2954_15188" x1="8.03025" y1="14.8942" x2="7.95903" y2="2.83597" gradientUnits="userSpaceOnUse">
<stop stop-color="#F32B00"/>
<stop offset="0.13" stop-color="#FF7037"/>
<stop offset="0.53" stop-color="#FF9C47"/>
<stop offset="0.83" stop-color="#FFB717"/>
<stop offset="1" stop-color="#FFD34B"/>
</linearGradient>
</defs>
</svg>
