<svg xmlns="http://www.w3.org/2000/svg" width="16" height="16" viewBox="0 0 16 16" fill="none">
  <path d="M8.25035 5.00007C8.25039 4.58586 7.91464 4.25004 7.50042 4.25C7.08621 4.24996 6.75039 4.58571 6.75035 4.99993L6.75 8.50249C6.74998 8.70142 6.82899 8.8922 6.96964 9.03287C7.1103 9.17354 7.30107 9.25257 7.5 9.25257H10.9977C11.4119 9.25257 11.7477 8.91678 11.7477 8.50257C11.7477 8.08835 11.4119 7.75257 10.9977 7.75257H8.25007L8.25035 5.00007Z" fill="#09001B"/>
  <path fill-rule="evenodd" clip-rule="evenodd" d="M8 1.25C4.27208 1.25 1.25 4.27208 1.25 8C1.25 11.7279 4.27208 14.75 8 14.75C11.7279 14.75 14.75 11.7279 14.75 8C14.75 4.27208 11.7279 1.25 8 1.25ZM2.75 8C2.75 5.1005 5.1005 2.75 8 2.75C10.8995 2.75 13.25 5.1005 13.25 8C13.25 10.8995 10.8995 13.25 8 13.25C5.1005 13.25 2.75 10.8995 2.75 8Z" fill="#09001B"/>
</svg>
