<svg width="16" height="16" viewBox="0 0 16 16" fill="none" xmlns="http://www.w3.org/2000/svg">
<path d="M3.04848 2.25156C2.84072 2.23818 2.62845 2.31089 2.46967 2.46967C2.31068 2.62865 2.238 2.84126 2.25161 3.04927C2.25062 3.06606 2.25012 3.08298 2.25012 3.10002L2.25012 13C2.25012 13.4142 2.58591 13.75 3.00012 13.75C3.41433 13.75 3.75012 13.4142 3.75012 13L3.75012 4.81078L12.4697 13.5303C12.7626 13.8232 13.2374 13.8232 13.5303 13.5303C13.8232 13.2374 13.8232 12.7626 13.5303 12.4697L4.81068 3.75002L13.0001 3.75002C13.4143 3.75002 13.7501 3.41423 13.7501 3.00002C13.7501 2.5858 13.4143 2.25002 13.0001 2.25002L3.10012 2.25002C3.08278 2.25002 3.06556 2.25054 3.04848 2.25156Z" fill="white"/>
</svg>
