<svg width="24" height="24" viewBox="0 0 24 24" fill="none" xmlns="http://www.w3.org/2000/svg">
<path d="M12.0001 0C12.6026 0 13.091 0.488417 13.091 1.09091V4.36364C13.091 4.96613 12.6026 5.45455 12.0001 5.45455C11.3976 5.45455 10.9092 4.96613 10.9092 4.36364V1.09091C10.9092 0.488417 11.3976 0 12.0001 0Z" fill="white"/>
<path d="M18 1.60727C18.5217 1.90852 18.7005 2.57569 18.3993 3.09745L16.7629 5.93218C16.5694 6.27249 16.2084 6.48304 15.8169 6.4839C15.4255 6.48476 15.0636 6.2758 14.8686 5.93634C14.6736 5.59689 14.6754 5.17898 14.8734 4.84127L16.5098 2.00654C16.8111 1.48479 17.4782 1.30604 18 1.60727Z" fill="white" fill-opacity="0.833"/>
<path d="M22.3926 6.00019C22.6938 6.52195 22.5151 7.18912 21.9933 7.49038L19.1586 9.12674C18.6373 9.42313 17.9745 9.24318 17.6747 8.72386C17.3748 8.20454 17.5504 7.54056 18.0677 7.23728L20.9024 5.60092C21.4242 5.29969 22.0913 5.47845 22.3926 6.00019Z" fill="white" fill-opacity="0.75"/>
<path d="M24 12.0001C24 12.2894 23.885 12.5669 23.6804 12.7715C23.4759 12.9761 23.1984 13.091 22.909 13.091H19.6363C19.0338 13.091 18.5454 12.6026 18.5454 12.0001C18.5454 11.3976 19.0338 10.9092 19.6363 10.9092H22.909C23.5115 10.9092 24 11.3976 24 12.0001Z" fill="white" fill-opacity="0.667"/>
<path d="M22.3927 18C22.0915 18.5217 21.4243 18.7005 20.9026 18.3993L18.0678 16.7629C17.7275 16.5694 17.517 16.2084 17.5161 15.8169C17.5153 15.4255 17.7242 15.0636 18.0637 14.8686C18.4031 14.6736 18.821 14.6754 19.1587 14.8734L21.9935 16.5098C22.5152 16.8111 22.694 17.4782 22.3927 18Z" fill="white" fill-opacity="0.583"/>
<path d="M17.9998 22.3926C17.478 22.6938 16.8108 22.5151 16.5096 21.9933L14.8732 19.1586C14.5768 18.6373 14.7568 17.9745 15.2761 17.6747C15.7954 17.3748 16.4594 17.5504 16.7627 18.0677L18.399 20.9024C18.7003 21.4242 18.5215 22.0913 17.9998 22.3926Z" fill="white" fill-opacity="0.5"/>
<path d="M12.0001 24C11.7108 24 11.4333 23.885 11.2287 23.6804C11.0241 23.4759 10.9092 23.1984 10.9092 22.909V19.6363C10.9092 19.0338 11.3976 18.5454 12.0001 18.5454C12.6026 18.5454 13.091 19.0338 13.091 19.6363V22.909C13.091 23.5115 12.6026 24 12.0001 24Z" fill="white" fill-opacity="0.417"/>
<path d="M6.00019 22.3927C5.47845 22.0915 5.29969 21.4243 5.60092 20.9026L7.23728 18.0678C7.43077 17.7275 7.79176 17.517 8.18323 17.5161C8.5747 17.5153 8.93662 17.7242 9.1316 18.0637C9.32658 18.4031 9.32472 18.821 9.12674 19.1587L7.49038 21.9935C7.18912 22.5152 6.52195 22.694 6.00019 22.3927Z" fill="white" fill-opacity="0.333"/>
<path d="M1.60727 17.9998C1.30604 17.478 1.48479 16.8108 2.00654 16.5096L4.84127 14.8732C5.36257 14.5768 6.02536 14.7568 6.3252 15.2761C6.62504 15.7954 6.4495 16.4594 5.93218 16.7627L3.09745 18.399C2.57569 18.7003 1.90852 18.5215 1.60727 17.9998Z" fill="white" fill-opacity="0.25"/>
<path d="M0 12.0001C0 11.3976 0.488417 10.9092 1.09091 10.9092H4.36364C4.96613 10.9092 5.45455 11.3976 5.45455 12.0001C5.45455 12.6026 4.96613 13.091 4.36364 13.091H1.09091C0.488417 13.091 0 12.6026 0 12.0001Z" fill="white" fill-opacity="0.167"/>
<path d="M1.60727 6.00019C1.90852 5.47845 2.57569 5.29969 3.09745 5.60092L5.93218 7.23728C6.27249 7.43077 6.48304 7.79176 6.4839 8.18323C6.48476 8.5747 6.2758 8.93662 5.93634 9.1316C5.59689 9.32658 5.17898 9.32472 4.84127 9.12674L2.00654 7.49038C1.48479 7.18912 1.30604 6.52195 1.60727 6.00019Z" fill="white" fill-opacity="0.083"/>
<path d="M6.00019 1.60727C6.52195 1.30604 7.18912 1.48479 7.49038 2.00654L9.12674 4.84127C9.42313 5.36257 9.24318 6.02536 8.72386 6.3252C8.20454 6.62504 7.54056 6.4495 7.23728 5.93218L5.60092 3.09745C5.29969 2.57569 5.47845 1.90852 6.00019 1.60727Z" fill="white" fill-opacity="0.05"/>
</svg>
