<svg width="142" height="28" viewBox="0 0 142 28" fill="none" xmlns="http://www.w3.org/2000/svg">
<path d="M139.697 0H125.009C123.734 0 122.723 1.03179 122.723 2.28613C122.723 3.5607 123.754 4.57225 125.009 4.57225H139.697C140.971 4.57225 141.983 3.54046 141.983 2.28613C141.983 1.03179 140.951 0 139.697 0Z" fill="#1B76E2"/>
<path d="M132.353 6.10986C131.078 6.10986 130.066 7.14166 130.066 8.39599V25.7139C130.066 26.9885 131.098 28 132.353 28C133.627 28 134.639 26.9682 134.639 25.7139V8.39599C134.639 7.14166 133.607 6.10986 132.353 6.10986Z" fill="#1B76E2"/>
<path d="M16.974 9.40752H4.57225V4.57225H16.974C18.2486 4.57225 19.2601 3.54046 19.2601 2.28613C19.2601 1.03179 18.2283 0 16.974 0H4.57225H2.28613C1.01156 0 0 1.03179 0 2.28613V4.57225V9.40752V13.9798V25.7139C0 26.9884 1.03179 28 2.28613 28C3.56069 28 4.57225 26.9682 4.57225 25.7139V13.9798H16.974C18.2486 13.9798 19.2601 12.948 19.2601 11.6936C19.2601 10.4393 18.2283 9.40752 16.974 9.40752Z" fill="#1B76E2"/>
<path d="M66.0549 16.2861H58.4277C57.1532 16.2861 56.1416 17.3179 56.1416 18.5723C56.1416 19.8266 57.1734 20.8584 58.4277 20.8584H63.7688V25.7139C63.7688 26.9884 64.8006 28 66.0549 28C67.3092 28 68.341 26.9682 68.341 25.7139V18.5723C68.341 17.3179 67.3295 16.2861 66.0549 16.2861Z" fill="#1B76E2"/>
<path d="M66.0549 0H53.6532H51.3671C50.0925 0 49.0809 1.03179 49.0809 2.28613V4.57225V9.40752V13.9798V25.7139C49.0809 26.9884 50.1127 28 51.3671 28C52.6214 28 53.6532 26.9682 53.6532 25.7139V13.9798H66.0549C67.3295 13.9798 68.341 12.948 68.341 11.6936V2.28613C68.341 1.03179 67.3295 0 66.0549 0ZM53.6734 4.59249H63.7688V9.42774H53.6734V4.59249Z" fill="#1B76E2"/>
<path d="M41.5145 0H29.1127H26.8266C25.552 0 24.5405 1.03179 24.5405 2.28613V4.57225V25.7139C24.5405 26.9884 25.5723 28 26.8266 28H39.2283H41.5145C42.789 28 43.8006 26.9682 43.8006 25.7139V23.4277V2.28613C43.8006 1.03179 42.789 0 41.5145 0ZM40.0578 21.7486H35.6676V23.2457C35.6676 24.0751 35 24.7428 34.1705 24.7428C33.341 24.7428 32.6734 24.0751 32.6734 23.2457V21.7486H28.2832C27.1301 21.7486 26.4017 20.4942 26.9884 19.5029L30.2254 13.8988H29.7804C28.6272 13.8988 27.8988 12.6445 28.4856 11.6532L32.8757 4.04624C33.4624 3.05491 34.8988 3.05491 35.4856 4.04624L39.8757 11.6532C40.4624 12.6445 39.7341 13.8988 38.5809 13.8988H38.1358L41.3728 19.5029C41.9393 20.4942 41.211 21.7486 40.0578 21.7486Z" fill="#1B76E2"/>
<path d="M78.2139 16.2861H90.6156C91.8902 16.2861 92.9017 15.2543 92.9017 14C92.9017 12.7254 91.87 11.7139 90.6156 11.7139H78.2139V6.83815V4.59249H90.6156C91.8902 4.59249 92.9017 3.56069 92.9017 2.30636C92.9017 1.05202 91.8699 0 90.5954 0H78.1937H75.9075C74.633 0 73.6214 1.03179 73.6214 2.28613V4.57225V6.81792V11.6936V16.2659V21.1618V23.4075V25.6936C73.6214 26.9682 74.6532 27.9798 75.9075 27.9798H78.1937H90.5954C91.8699 27.9798 92.8815 26.948 92.8815 25.6936C92.8815 24.4191 91.8497 23.4075 90.5954 23.4075H78.1937V21.1618V16.2861H78.2139Z" fill="#1B76E2"/>
<path d="M115.156 11.7139H102.754V6.83815V4.59249H115.156C116.431 4.59249 117.442 3.56069 117.442 2.30636C117.442 1.05202 116.41 0 115.156 0H102.754H100.468C99.1936 0 98.1821 1.03179 98.1821 2.28613V4.57225V6.81792V11.6936V13.9798C98.1821 15.2543 99.2139 16.2659 100.468 16.2659H102.754H103.483H112.87V23.4075H103.483H102.754H100.468C99.1936 23.4075 98.1821 24.4393 98.1821 25.6936C98.1821 26.9682 99.2139 27.9798 100.468 27.9798H102.754H115.156C116.431 27.9798 117.442 26.948 117.442 25.6936V13.9595C117.442 12.7254 116.41 11.7139 115.156 11.7139Z" fill="#1B76E2"/>
</svg>
