<svg width="152" height="32" viewBox="0 0 444 94" fill="none" xmlns="http://www.w3.org/2000/svg">
<path d="M258.3 34.6H251.5V78.5H258.3V34.6Z" fill="white"/>
<path d="M233.5 56C237.8 56 241.3 59.5 241.3 63.8C241.3 68.1 237.8 71.6 233.5 71.6C229.2 71.6 225.7 68.1 225.7 63.8C225.7 59.5 229.1 56 233.5 56ZM233.5 49.2C225.4 49.2 218.9 55.8 218.9 63.8C218.9 71.9 225.5 78.4 233.5 78.4C241.5 78.4 248.1 71.8 248.1 63.8C248.1 55.8 241.6 49.2 233.5 49.2Z" fill="white"/>
<path d="M201.5 49.2C198.1 49.2 194.9 50.4 192.5 52.3V34.5H185.7V78.4H192.5V75.3C195 77.3 198.1 78.4 201.5 78.4C209.6 78.4 216.1 71.8 216.1 63.8C216.1 55.8 209.6 49.2 201.5 49.2ZM201.5 71.7C197.2 71.7 193.7 68.2 193.7 63.9C193.7 59.6 197.2 56.1 201.5 56.1C205.8 56.1 209.3 59.6 209.3 63.9C209.3 68.2 205.8 71.7 201.5 71.7Z" fill="white"/>
<path d="M341.2 49.2V51.5C338.9 50.1 336.2 49.2 333.4 49.2C325.3 49.2 318.8 55.8 318.8 63.8C318.8 71.8 325.4 78.4 333.4 78.4C336.3 78.4 339 77.6 341.2 76.1V78.4H348V49.1H341.2V49.2ZM333.3 71.7C329 71.7 325.5 68.2 325.5 63.9C325.5 59.6 329 56.1 333.3 56.1C337.6 56.1 341.1 59.6 341.1 63.9C341.2 68.2 337.7 71.7 333.3 71.7Z" fill="white"/>
<path d="M171.2 49.2C168.3 49.2 165.6 50.4 163.6 52.2C161.6 50.3 159 49.2 156 49.2C154.5 49.2 153.1 49.5 151.8 50V49.2H145V78.5H151.8V60.2C151.8 57.9 153.7 56 156 56C158.3 56 160.2 57.9 160.2 60.2V78.5H167V60.2C167 57.9 168.9 56 171.2 56C173.5 56 175.4 57.9 175.4 60.2V78.5H182.2V60.2C182.2 54.2 177.3 49.2 171.2 49.2Z" fill="white"/>
<path d="M309 41.4L297 70.3L285 41.4H278.2V78.5H285V57.8L293.6 78.5H300.4L309 57.8V78.5H315.8V41.4H309Z" fill="white"/>
<path d="M358.7 50.1V49.3H351.9V78.6H358.7V60.3C358.7 58 360.6 56.1 362.9 56.1V49.3C361.4 49.2 360 49.5 358.7 50.1Z" fill="white"/>
<path d="M417.1 67.7H422.4C422.7 66.5 422.9 65.2 422.9 63.9C422.9 55.8 416.3 49.3 408.3 49.3C400.2 49.3 393.7 55.9 393.7 63.9C393.7 71.9 400.3 78.5 408.3 78.5C412.2 78.5 415.7 77 418.3 74.5L413.4 69.7C412 70.9 410.2 71.7 408.2 71.7C405.3 71.7 402.7 70.1 401.4 67.7H415.1H417.1ZM401 60.9C402.2 58 405 56 408.3 56C411.6 56 414.4 58 415.6 60.9H401Z" fill="white"/>
<path d="M102.6 56.6H95.2998C92.9998 56.6 91.0998 54.7 91.0998 52.4C91.0998 50.1 92.9998 48.2 95.2998 48.2H102.6C104.9 48.2 106.8 50.1 106.8 52.4H113.6C113.6 46.3 108.7 41.4 102.6 41.4H95.2998C89.1998 41.4 84.2998 46.3 84.2998 52.4C84.2998 58.5 89.1998 63.4 95.2998 63.4H102.6C104.9 63.4 106.8 65.3 106.8 67.6C106.8 69.9 104.9 71.8 102.6 71.8H95.2998C92.9998 71.8 91.0998 69.9 91.0998 67.6H84.2998C84.2998 73.7 89.1998 78.6 95.2998 78.6H102.6C108.7 78.6 113.6 73.7 113.6 67.6C113.6 61.5 108.7 56.6 102.6 56.6Z" fill="white"/>
<path d="M443.3 57.9V51.1H437.5V41.4H430.7V51.1H424.9V57.9H430.7V67.6C430.7 73.7 435.6 78.6 441.7 78.6V71.7C439.4 71.7 437.5 69.8 437.5 67.5V57.8H443.3V57.9Z" fill="white"/>
<path d="M386.4 78.5H396L379.7 62.2L392.6 49.2H383L373.6 58.7V34.6H366.8V78.5H373.6V68.3L374.9 67L386.4 78.5Z" fill="white"/>
<path d="M121.1 86.4H128.5L143.8 49.2H136.5L129.2 66.8L121.9 49.2H114.6L125.5 75.7L121.1 86.4Z" fill="white"/>
<path d="M32.3 72.3C38.5 72.3 43.5 67.3 43.5 61.1C43.5 54.9 38.5 49.9 32.3 49.9C26.1 49.9 21.1 54.9 21.1 61.1C21.1 67.3 26.1 72.3 32.3 72.3Z" fill="#8B60F7"/>
<path d="M55.1 38.3C51.2 34.3 48.7 28.8 48.7 22.8C48.7 16.8 51.2 11.3 55.1 7.39999L47.7 0C41.9 5.8 38.3 13.9 38.3 22.8C38.3 31.7 41.9 39.8 47.8 45.6H47.7C51.7 49.6 54.1 55 54.1 61C54.1 73 44.3 82.8 32.3 82.8C20.3 82.8 10.4 73.2 10.4 61.1C10.4 49.5 19.5 40 31 39.3C29.7 36.1 28.7 32.7 28.2 29.1C12.3 31.1 0 44.6 0 61.1C0 78.9 14.4 93.3 32.2 93.3C50 93.3 64.4 78.9 64.4 61.1C64.5 52.2 60.9 44.2 55.1 38.3Z" fill="#8B60F7"/>
</svg>
