<svg xmlns="http://www.w3.org/2000/svg" width="139" height="21" viewBox="0 0 139 21" fill="none">
  <path d="M67.6372 0.351807H65.0142V17.2859H67.6372V0.351807Z" fill="white"/>
  <path d="M58.0708 8.60669C59.7295 8.60669 61.0796 9.9568 61.0796 11.6155C61.0796 13.2742 59.7295 14.6243 58.0708 14.6243C56.4121 14.6243 55.062 13.2742 55.062 11.6155C55.062 9.9568 56.3735 8.60669 58.0708 8.60669ZM58.0708 5.98364C54.9463 5.98364 52.439 8.52955 52.439 11.6155C52.439 14.74 54.9849 17.2474 58.0708 17.2474C61.1568 17.2474 63.7027 14.7014 63.7027 11.6155C63.7027 8.52955 61.1953 5.98364 58.0708 5.98364Z" fill="white"/>
  <path d="M45.7271 5.98366C44.4155 5.98366 43.1812 6.44655 42.2554 7.17946V0.313232H39.6323V17.2474H42.2554V16.0516C43.2197 16.823 44.4155 17.2474 45.7271 17.2474C48.8516 17.2474 51.3589 14.7015 51.3589 11.6155C51.3589 8.52957 48.8516 5.98366 45.7271 5.98366ZM45.7271 14.6629C44.0684 14.6629 42.7183 13.3128 42.7183 11.6541C42.7183 9.99539 44.0684 8.64528 45.7271 8.64528C47.3858 8.64528 48.7359 9.99539 48.7359 11.6541C48.7359 13.3128 47.3858 14.6629 45.7271 14.6629Z" fill="white"/>
  <path d="M99.6157 5.98365V6.87086C98.7285 6.33082 97.687 5.98365 96.607 5.98365C93.4824 5.98365 90.9751 8.52955 90.9751 11.6155C90.9751 14.7014 93.521 17.2474 96.607 17.2474C97.7256 17.2474 98.7671 16.9388 99.6157 16.3601V17.2474H102.239V5.94507H99.6157V5.98365ZM96.5684 14.6629C94.9097 14.6629 93.5596 13.3128 93.5596 11.6541C93.5596 9.99538 94.9097 8.64527 96.5684 8.64527C98.2271 8.64527 99.5772 9.99538 99.5772 11.6541C99.6158 13.3128 98.2656 14.6629 96.5684 14.6629Z" fill="white"/>
  <path d="M34.0391 5.98364C32.9204 5.98364 31.8789 6.44653 31.1074 7.14087C30.336 6.40796 29.333 5.98364 28.1758 5.98364C27.5972 5.98364 27.0571 6.09937 26.5557 6.29224V5.98364H23.9326V17.2859H26.5557V10.2268C26.5557 9.33961 27.2886 8.60669 28.1758 8.60669C29.063 8.60669 29.7959 9.33961 29.7959 10.2268V17.2859H32.419V10.2268C32.419 9.33961 33.1519 8.60669 34.0391 8.60669C34.9263 8.60669 35.6592 9.33961 35.6592 10.2268V17.2859H38.2823V10.2268C38.2823 7.91236 36.3921 5.98364 34.0391 5.98364Z" fill="white"/>
  <path d="M87.1944 2.97485L82.5655 14.1228L77.9365 2.97485H75.3135V17.2859H77.9365V9.30105L81.2539 17.2859H83.877L87.1944 9.30105V17.2859H89.8174V2.97485H87.1944Z" fill="white"/>
  <path d="M106.366 6.33079V6.0222H103.743V17.3245H106.366V10.2654C106.366 9.37817 107.099 8.64525 107.986 8.64525V6.0222C107.408 5.98363 106.868 6.09935 106.366 6.33079Z" fill="white"/>
  <path d="M128.894 13.1199H130.938C131.054 12.657 131.131 12.1555 131.131 11.6541C131.131 8.52955 128.585 6.02222 125.499 6.02222C122.375 6.02222 119.867 8.56813 119.867 11.6541C119.867 14.74 122.413 17.2859 125.499 17.2859C127.003 17.2859 128.354 16.7073 129.356 15.7429L127.466 13.8914C126.926 14.3543 126.232 14.6629 125.46 14.6629C124.342 14.6629 123.339 14.0457 122.837 13.1199H128.122H128.894ZM122.683 10.4968C123.146 9.37819 124.226 8.60669 125.499 8.60669C126.772 8.60669 127.852 9.37819 128.315 10.4968H122.683Z" fill="white"/>
  <path d="M7.57717 8.83815H4.76124C3.87403 8.83815 3.14112 8.10524 3.14112 7.21803C3.14112 6.33082 3.87403 5.59791 4.76124 5.59791H7.57717C8.46438 5.59791 9.19729 6.33082 9.19729 7.21803H11.8203C11.8203 4.865 9.9302 2.97485 7.57717 2.97485H4.76124C2.40821 2.97485 0.518066 4.865 0.518066 7.21803C0.518066 9.57106 2.40821 11.4612 4.76124 11.4612H7.57717C8.46438 11.4612 9.19729 12.1941 9.19729 13.0813C9.19729 13.9685 8.46438 14.7015 7.57717 14.7015H4.76124C3.87403 14.7015 3.14112 13.9685 3.14112 13.0813H0.518066C0.518066 15.4344 2.40821 17.3245 4.76124 17.3245H7.57717C9.9302 17.3245 11.8203 15.4344 11.8203 13.0813C11.8203 10.7283 9.9302 8.83815 7.57717 8.83815Z" fill="white"/>
  <path d="M139 9.33962V6.71656H136.763V2.97485H134.14V6.71656H131.902V9.33962H134.14V13.0813C134.14 15.4344 136.03 17.3245 138.383 17.3245V14.6629C137.496 14.6629 136.763 13.93 136.763 13.0428V9.30105H139V9.33962Z" fill="white"/>
  <path d="M117.051 17.2859H120.754L114.467 10.9983L119.443 5.98366H115.74L112.114 9.64822V0.351807H109.491V17.2859H112.114V13.3514L112.615 12.8499L117.051 17.2859Z" fill="white"/>
  <path d="M14.7134 20.3333H17.5679L23.4698 5.98364H20.6538L17.8379 12.7727L15.022 5.98364H12.2061L16.4107 16.2058L14.7134 20.3333Z" fill="white"/>
</svg>
