<svg xmlns="http://www.w3.org/2000/svg" width="20" height="20" viewBox="0 0 20 20" fill="none">
  <path fill-rule="evenodd" clip-rule="evenodd" d="M10.9334 2.21659C11.1219 1.76162 11.3981 1.34822 11.7463 1L12.807 2.06066C12.598 2.26959 12.4323 2.51763 12.3192 2.79061C12.2061 3.0636 12.1479 3.35618 12.1479 3.65165C12.1479 3.94712 12.2061 4.23971 12.3192 4.51269C12.4323 4.78567 12.598 5.03371 12.807 5.24264L12.6621 5.38748C13.1859 6.03233 13.4998 6.85451 13.4998 7.75C13.4998 9.82107 11.8208 11.5 9.74976 11.5C7.67869 11.5 5.99976 9.82107 5.99976 7.75C5.99976 5.8761 7.37423 4.32323 9.17002 4.04454C9.19869 4.42604 9.26914 4.80467 9.38102 5.17351C9.41591 5.28852 9.45467 5.40208 9.49721 5.51402C8.37345 5.63953 7.49976 6.59274 7.49976 7.75C7.49976 8.99264 8.50712 10 9.74976 10C10.9924 10 11.9998 8.99264 11.9998 7.75C11.9998 7.26908 11.8489 6.82341 11.5919 6.45773L11.7463 6.3033C11.3981 5.95508 11.1219 5.54169 10.9334 5.08671C10.7449 4.63174 10.6479 4.14411 10.6479 3.65165C10.6479 3.15919 10.7449 2.67156 10.9334 2.21659ZM9.99987 13.75C6.68955 13.75 3.8974 15.9686 3.02925 19H1.47949C2.38407 15.1313 5.85549 12.25 9.99987 12.25C14.1443 12.25 17.6157 15.1313 18.5203 19H16.9705C16.1023 15.9686 13.3102 13.75 9.99987 13.75Z" fill="white"/>
</svg>