<svg xmlns="http://www.w3.org/2000/svg" width="16" height="16" viewBox="0 0 16 16" fill="none">
  <path fill-rule="evenodd" clip-rule="evenodd" d="M8.74672 1.77332C8.89748 1.40934 9.11846 1.07862 9.39704 0.800049L10.2456 1.64858C10.0784 1.81572 9.94584 2.01415 9.85538 2.23254C9.76492 2.45093 9.71836 2.68499 9.71836 2.92137C9.71836 3.15775 9.76492 3.39181 9.85538 3.6102C9.94584 3.82859 10.0784 4.02702 10.2456 4.19416L10.1297 4.31003C10.5487 4.82591 10.7998 5.48365 10.7998 6.20005C10.7998 7.8569 9.45666 9.20005 7.7998 9.20005C6.14295 9.20005 4.7998 7.8569 4.7998 6.20005C4.7998 4.70093 5.89938 3.45863 7.33601 3.23568C7.35895 3.54088 7.41531 3.84379 7.50482 4.13886C7.53273 4.23086 7.56374 4.32171 7.59777 4.41126C6.69876 4.51167 5.9998 5.27424 5.9998 6.20005C5.9998 7.19416 6.80569 8.00005 7.7998 8.00005C8.79392 8.00005 9.5998 7.19416 9.5998 6.20005C9.5998 5.81532 9.4791 5.45877 9.2735 5.16623L9.39704 5.04269C9.11846 4.76411 8.89749 4.4334 8.74672 4.06942C8.59596 3.70544 8.51836 3.31534 8.51836 2.92137C8.51836 2.5274 8.59596 2.1373 8.74672 1.77332ZM7.9999 11C5.35164 11 3.11792 12.7749 2.4234 15.2H1.18359C1.90725 12.1051 4.68439 9.80005 7.9999 9.80005C11.3154 9.80005 14.0925 12.1051 14.8162 15.2H13.5764C12.8819 12.7749 10.6482 11 7.9999 11Z" fill="white"/>
</svg>