<svg xmlns="http://www.w3.org/2000/svg" width="16" height="16" viewBox="0 0 16 16" fill="none">
  <path fill-rule="evenodd" clip-rule="evenodd" d="M7.99998 2.35C4.87957 2.35 2.34998 4.87959 2.34998 8C2.34998 11.1204 4.87957 13.65 7.99998 13.65C11.1204 13.65 13.65 11.1204 13.65 8C13.65 4.87959 11.1204 2.35 7.99998 2.35ZM0.849976 8C0.849976 4.05116 4.05114 0.85 7.99998 0.85C11.9488 0.85 15.15 4.05116 15.15 8C15.15 11.9488 11.9488 15.15 7.99998 15.15C4.05114 15.15 0.849976 11.9488 0.849976 8ZM5.59998 8.6V7.1H7.24998V5.6H8.74998V7.1H10.4V8.6H8.74998V10.4H7.24998V8.6H5.59998Z" fill="white"/>
</svg>
