<svg xmlns="http://www.w3.org/2000/svg" width="20" height="20" viewBox="0 0 20 20" fill="none">
<path fill-rule="evenodd" clip-rule="evenodd" d="M9.07259 1.23901C4.74638 1.23901 1.23926 4.74613 1.23926 9.07235C1.23926 13.3986 4.74638 16.9057 9.07259 16.9057C10.9657 16.9057 12.7019 16.2341 14.0561 15.1163L17.7007 18.7609L18.7614 17.7003L15.1167 14.0556C16.2345 12.7015 16.9059 10.9653 16.9059 9.07235C16.9059 4.74613 13.3988 1.23901 9.07259 1.23901ZM2.73926 9.07235C2.73926 5.57456 5.57481 2.73901 9.07259 2.73901C12.5704 2.73901 15.4059 5.57456 15.4059 9.07235C15.4059 12.5701 12.5704 15.4057 9.07259 15.4057C5.57481 15.4057 2.73926 12.5701 2.73926 9.07235Z" fill="#796F94"/>
</svg>
