<svg width="16" height="16" viewBox="0 0 16 16" fill="white" xmlns="http://www.w3.org/2000/svg">
<g id="Icon">
<path id="Union" d="M3.53033 2.46967C3.23744 2.17678 2.76256 2.17678 2.46967 2.46967C2.17678 2.76256 2.17678 3.23744 2.46967 3.53033L6.9394 8.00006L2.46978 12.4697C2.17689 12.7626 2.17689 13.2374 2.46978 13.5303C2.76268 13.8232 3.23755 13.8232 3.53044 13.5303L8.00006 9.06072L12.4697 13.5303C12.7626 13.8232 13.2374 13.8232 13.5303 13.5303C13.8232 13.2374 13.8232 12.7626 13.5303 12.4697L9.06072 8.00006L13.5304 3.53034C13.8233 3.23745 13.8233 2.76257 13.5304 2.46968C13.2375 2.17679 12.7627 2.17679 12.4698 2.46968L8.00006 6.9394L3.53033 2.46967Z"/>
</g>
</svg>
