<svg width="32" height="44" viewBox="0 0 32 44" fill="none" xmlns="http://www.w3.org/2000/svg">
<g id="Group">
<path id="Vector" d="M15.9999 34.0609C18.9039 34.0609 21.2579 31.7068 21.2579 28.8029C21.2579 25.899 18.9039 23.5449 15.9999 23.5449C13.096 23.5449 10.7419 25.899 10.7419 28.8029C10.7419 31.7068 13.096 34.0609 15.9999 34.0609Z" fill="#8B60F7"/>
<path id="Vector_2" d="M26.747 18.0554L26.7668 18.0356C24.8968 16.17 23.7352 13.5938 23.7352 10.7492C23.7352 7.9112 24.8902 5.3372 26.7536 3.4738L23.2842 0C20.5342 2.75 18.8336 6.5494 18.8336 10.747C18.8336 14.949 20.5408 18.755 23.2974 21.505L23.2732 21.5204C25.1388 23.3838 26.296 25.96 26.296 28.8002C26.296 34.4762 21.6782 39.094 16.0022 39.094C10.3262 39.094 5.70837 34.4762 5.70837 28.8002C5.70837 23.3222 10.0116 18.843 15.4126 18.5372C14.7834 17.0214 14.3434 15.411 14.1014 13.7346C6.60597 14.6718 0.802368 21.0518 0.802368 28.8024C0.802368 37.1954 7.60697 44 16 44C24.393 44 31.1976 37.1954 31.1976 28.8024C31.1976 24.6048 29.497 20.8054 26.747 18.0554Z" fill="#8B60F7"/>
</g>
</svg>
