<svg viewBox="0 0 438 438" fill="none" xmlns="http://www.w3.org/2000/svg">
<path d="M438 0H0V438H438V0Z" fill="#8B60F7"/>
<g opacity="0.2">
<path d="M78.5784 266.717C103.869 266.717 124.371 246.214 124.371 220.924C124.371 195.633 103.869 175.131 78.5784 175.131C53.2876 175.131 32.7855 195.633 32.7855 220.924C32.7855 246.214 53.2876 266.717 78.5784 266.717Z" fill="white"/>
<path d="M0 177.827C14.4978 151.569 41.7852 133.304 73.4526 131.508C67.9776 118.302 64.1232 104.286 62.0208 89.6572C38.982 92.548 17.8047 101.352 0 114.492V177.827Z" fill="white"/>
<path d="M172.178 127.305L172.353 127.129C156.059 110.88 145.942 88.4322 145.942 63.6633C145.942 38.9382 155.994 16.5345 172.244 0.2847L171.981 0H119.53C109.15 18.8997 103.237 40.5807 103.237 63.6414C103.237 100.258 118.107 133.393 142.131 157.351L141.912 157.505C158.162 173.755 168.236 196.18 168.236 220.927C168.236 270.377 128.006 310.586 78.5772 310.586C44.7636 310.586 15.2862 291.774 0 264.07V327.471C21.9876 343.699 49.1436 353.313 78.5772 353.313C151.701 353.313 210.963 294.029 210.963 220.927C210.963 184.354 196.136 151.263 172.178 127.305Z" fill="white"/>
</g>
</svg>
