<svg width="32" height="44" viewBox="0 0 32 44" fill="none" xmlns="http://www.w3.org/2000/svg">
<path d="M16 34.0604C18.9039 34.0604 21.258 31.7063 21.258 28.8024C21.258 25.8985 18.9039 23.5444 16 23.5444C13.0961 23.5444 10.742 25.8985 10.742 28.8024C10.742 31.7063 13.0961 34.0604 16 34.0604Z" fill="#8B60F7"/>
<path d="M26.747 18.0554L26.7668 18.0356C24.8968 16.17 23.7352 13.5938 23.7352 10.7492C23.7352 7.9112 24.8902 5.3372 26.7536 3.4738L23.2842 0C20.5342 2.75 18.8336 6.5494 18.8336 10.747C18.8336 14.949 20.5408 18.755 23.2974 21.505L23.2732 21.5204C25.1388 23.3838 26.296 25.96 26.296 28.8002C26.296 34.4762 21.6782 39.094 16.0022 39.094C10.3262 39.094 5.70843 34.4762 5.70843 28.8002C5.70843 23.3222 10.0116 18.843 15.4126 18.5372C14.7834 17.0214 14.3434 15.411 14.1014 13.7346C6.60603 14.6718 0.802429 21.0518 0.802429 28.8024C0.802429 37.1954 7.60703 44 16 44C24.393 44 31.1976 37.1954 31.1976 28.8024C31.1976 24.6048 29.497 20.8054 26.747 18.0554Z" fill="#8B60F7"/>
</svg>
