<svg viewBox="0 0 48 48" fill="none" xmlns="http://www.w3.org/2000/svg">
<g clip-path="url(#clip0_255_45026)">
<rect width="48" height="48" rx="6" fill="#8B60F7"/>
<path d="M8.00003 28.9641C10.64 28.9641 12.78 26.824 12.78 24.1841C12.78 21.5441 10.64 19.4041 8.00003 19.4041C5.36011 19.4041 3.22003 21.5441 3.22003 24.1841C3.22003 26.824 5.36011 28.9641 8.00003 28.9641Z" fill="white" fill-opacity="0.2"/>
<path d="M17.77 14.414L17.788 14.396C16.088 12.7 15.032 10.358 15.032 7.772C15.032 5.192 16.082 2.852 17.776 1.158L14.622 -2C12.122 0.5 10.576 3.954 10.576 7.77C10.576 11.59 12.128 15.05 14.634 17.55L14.612 17.564C16.308 19.258 17.36 21.6 17.36 24.182C17.36 29.342 13.162 33.54 8.00202 33.54C2.84202 33.54 -1.35598 29.342 -1.35598 24.182C-1.35598 19.202 2.55602 15.13 7.46602 14.852C6.89402 13.474 6.49402 12.01 6.27402 10.486C-0.539978 11.338 -5.81598 17.138 -5.81598 24.184C-5.81598 31.814 0.370021 38 8.00002 38C15.63 38 21.816 31.814 21.816 24.184C21.816 20.368 20.27 16.914 17.77 14.414Z" fill="white" fill-opacity="0.2"/>
<path d="M28.1816 25.4489L28.5574 25.0183C28.9195 25.3941 29.4242 25.6409 29.9453 25.6409C30.6008 25.6409 30.9986 25.3118 30.9986 24.8208C30.9986 24.3079 30.6365 24.1433 30.1647 23.9321L29.4406 23.6167C28.9771 23.4192 28.423 23.0626 28.423 22.333C28.423 21.5595 29.0923 21 30.0029 21C30.5981 21 31.1247 21.2523 31.4786 21.6226L31.1439 22.0258C30.8367 21.7378 30.4664 21.5541 30.0029 21.5541C29.4351 21.5541 29.0676 21.8421 29.0676 22.2919C29.0676 22.7769 29.5028 22.9608 29.892 23.1252L29.8932 23.1257L30.6118 23.4329C31.1933 23.6853 31.6431 24.0281 31.6431 24.7714C31.6431 25.5641 30.9876 26.1922 29.9426 26.1922C29.2267 26.195 28.6178 25.907 28.1816 25.4489Z" fill="white"/>
<path fill-rule="evenodd" clip-rule="evenodd" d="M14.1273 24.5738H15.9595L16.4368 26.1043H17.1061L15.4055 21.0958H14.7006L13 26.1043H13.6418L14.1273 24.5738ZM15.5646 23.3038L15.8032 24.0691H14.2864L14.5333 23.3038C14.7115 22.7361 14.8761 22.1957 15.0325 21.6088H15.0599C15.2217 22.1902 15.3808 22.7361 15.5646 23.3038Z" fill="white"/>
<path d="M18.4502 21.0958H17.8139V26.1043H18.4502V21.0958Z" fill="white"/>
<path d="M20.4715 21.0958L22.2955 24.2529L22.8276 25.2842H22.8605C22.8536 25.1776 22.8459 25.0684 22.8381 24.9577C22.809 24.544 22.7782 24.1077 22.7782 23.6988V21.0958H23.3789V26.1043H22.7289L20.9076 22.9418L20.3673 21.9105H20.3398C20.3473 22.048 20.3562 22.1879 20.3652 22.3291C20.3892 22.7061 20.4139 23.0936 20.4139 23.4766V26.107H19.8132V21.0958H20.4715Z" fill="white"/>
<path d="M24.2789 21.628H25.7957V26.1043H26.432V21.628H27.9488V21.0958H24.2789V21.628Z" fill="white"/>
<path d="M32.0024 21.628H33.5192V26.1043H34.1555V21.628H35.6723V21.0958H32.0024V21.628Z" fill="white"/>
</g>
<defs>
<clipPath id="clip0_255_45026">
<rect width="48" height="48" rx="6" fill="white"/>
</clipPath>
</defs>
</svg>
