<svg width="16" height="16" viewBox="0 0 16 16" fill="none" xmlns="http://www.w3.org/2000/svg">
<g id="Icon">
<path id="Subtract" fill-rule="evenodd" clip-rule="evenodd" d="M14.25 10.25H12.8855C12.567 9.23572 11.6194 8.5 10.5 8.5C9.38059 8.5 8.43302 9.23572 8.11445 10.25H1.75C1.33579 10.25 1 10.5858 1 11C1 11.4142 1.33579 11.75 1.75 11.75H8.11445C8.43302 12.7643 9.38059 13.5 10.5 13.5C11.6194 13.5 12.567 12.7643 12.8855 11.75H14.25C14.6642 11.75 15 11.4142 15 11C15 10.5858 14.6642 10.25 14.25 10.25ZM10.5 12C11.0523 12 11.5 11.5523 11.5 11C11.5 10.4477 11.0523 10 10.5 10C9.94771 10 9.5 10.4477 9.5 11C9.5 11.5523 9.94771 12 10.5 12Z" fill="#8B60F7"/>
<path id="Subtract_2" fill-rule="evenodd" clip-rule="evenodd" d="M14.25 4.25H7.88555C7.56698 3.23572 6.61941 2.5 5.5 2.5C4.38059 2.5 3.43302 3.23572 3.11445 4.25H1.75C1.33579 4.25 1 4.58579 1 5C1 5.41421 1.33579 5.75 1.75 5.75H3.11445C3.43302 6.76428 4.38059 7.5 5.5 7.5C6.61941 7.5 7.56698 6.76428 7.88555 5.75H14.25C14.6642 5.75 15 5.41421 15 5C15 4.58579 14.6642 4.25 14.25 4.25ZM5.5 6C6.05228 6 6.5 5.55228 6.5 5C6.5 4.44772 6.05228 4 5.5 4C4.94772 4 4.5 4.44772 4.5 5C4.5 5.55228 4.94772 6 5.5 6Z" fill="#8B60F7"/>
</g>
</svg>
