<svg width="52" height="28" viewBox="0 0 52 28" fill="none" xmlns="http://www.w3.org/2000/svg">
<path d="M50 0.5C50.8284 0.5 51.5 1.17157 51.5 2V17.0457C51.5 18.5822 50.4979 19.9391 49.0293 20.3909L28.2056 26.7982C26.7685 27.2404 25.2315 27.2404 23.7944 26.7982L2.9707 20.3909C1.50213 19.9391 0.5 18.5822 0.5 17.0457V2C0.5 1.17157 1.17157 0.5 2 0.5H50Z" fill="#FFD866" stroke="url(#paint0_linear_4414_68266)"/>
<path d="M21.1953 18V6.625H18.8594V14.2578L14.2812 6.625H11.9375V18H14.2812V10.375L18.8516 18H21.1953Z" fill="#B77100"/>
<path d="M25.5781 8.46094V11.4844H30.1094V13.3125H25.5781V18H23.2344V6.625H30.6562V8.46094H25.5781Z" fill="#B77100"/>
<path d="M37.2578 8.46094V18H34.9219V8.46094H31.4766V6.625H40.7578V8.46094H37.2578Z" fill="#B77100"/>
<defs>
<linearGradient id="paint0_linear_4414_68266" x1="26" y1="2.01798" x2="26" y2="30.2696" gradientUnits="userSpaceOnUse">
<stop stop-color="#FFE899"/>
<stop offset="1" stop-color="#FFC83F"/>
</linearGradient>
</defs>
</svg>
