<svg width="52" height="28" viewBox="0 0 52 28" fill="none" xmlns="http://www.w3.org/2000/svg">
<path d="M50 0.5C50.8284 0.5 51.5 1.17157 51.5 2V17.0457C51.5 18.5822 50.4979 19.9391 49.0293 20.3909L28.2056 26.7982C26.7685 27.2404 25.2315 27.2404 23.7944 26.7982L2.9707 20.3909C1.50213 19.9391 0.5 18.5822 0.5 17.0457V2C0.5 1.17157 1.17157 0.5 2 0.5H50Z" fill="#FFD866" stroke="url(#paint0_linear_4414_68308)"/>
<path d="M24.9219 12.6629V5.99219H22.6719V18H24.9219V15.4103L25.732 14.5906L27.9141 18H30.5078L27.1797 13.0483L30.25 9.54688H27.5469L25.3516 12.1172L24.9219 12.6629Z" fill="#B77100"/>
<path fill-rule="evenodd" clip-rule="evenodd" d="M34.9531 18.1562C34.2969 18.1562 33.7083 18.0521 33.1875 17.8438C32.6667 17.6302 32.224 17.3359 31.8594 16.9609C31.5 16.5859 31.224 16.151 31.0312 15.6562C30.8385 15.1562 30.7422 14.625 30.7422 14.0625V13.75C30.7422 13.1094 30.8333 12.5234 31.0156 11.9922C31.1979 11.4609 31.4583 11 31.7969 10.6094C32.1406 10.2188 32.5573 9.91927 33.0469 9.71094C33.5365 9.4974 34.0885 9.39062 34.7031 9.39062C35.3021 9.39062 35.8333 9.48958 36.2969 9.6875C36.7604 9.88542 37.1484 10.1667 37.4609 10.5312C37.7786 10.8958 38.0182 11.3333 38.1797 11.8438C38.3411 12.349 38.4219 12.9115 38.4219 13.5312V14.4688H33.024C33.0467 14.6548 33.0856 14.8319 33.1406 15C33.2396 15.2865 33.3776 15.5339 33.5547 15.7422C33.737 15.9505 33.9557 16.112 34.2109 16.2266C34.4714 16.3411 34.7656 16.3984 35.0938 16.3984C35.5 16.3984 35.8776 16.3203 36.2266 16.1641C36.5807 16.0026 36.8854 15.7604 37.1406 15.4375L38.2344 16.625C38.0573 16.8802 37.8151 17.125 37.5078 17.3594C37.2057 17.5938 36.8411 17.7865 36.4141 17.9375C35.987 18.0833 35.5 18.1562 34.9531 18.1562ZM33.0938 12.7188C33.0775 12.8 33.0634 12.8833 33.0513 12.9688H36.2109V12.7969C36.2109 12.4844 36.1536 12.2057 36.0391 11.9609C35.9297 11.7109 35.763 11.513 35.5391 11.3672C35.3151 11.2214 35.0286 11.1484 34.6797 11.1484C34.3828 11.1484 34.1276 11.2135 33.9141 11.3438C33.7005 11.474 33.526 11.6562 33.3906 11.8906C33.2604 12.125 33.1615 12.401 33.0938 12.7188Z" fill="#B77100"/>
<path d="M41.9062 18V12.0035C41.9379 11.9453 41.9717 11.8894 42.0078 11.8359C42.1536 11.6224 42.3359 11.4557 42.5547 11.3359C42.7786 11.2161 43.0417 11.1562 43.3438 11.1562C43.6354 11.1562 43.8802 11.2005 44.0781 11.2891C44.2812 11.3724 44.4349 11.5182 44.5391 11.7266C44.6432 11.9349 44.6953 12.2266 44.6953 12.6016V18H46.9609V12.6094C46.9609 12.0156 46.8958 11.513 46.7656 11.1016C46.6406 10.6901 46.4583 10.3594 46.2188 10.1094C45.9844 9.85938 45.7031 9.67708 45.375 9.5625C45.0469 9.44792 44.6849 9.39062 44.2891 9.39062C43.7891 9.39062 43.3359 9.48698 42.9297 9.67969C42.5286 9.86719 42.1823 10.1406 41.8906 10.5C41.875 10.5189 41.8596 10.5381 41.8444 10.5575L41.7656 9.54688H39.6562V18H41.9062Z" fill="#B77100"/>
<path fill-rule="evenodd" clip-rule="evenodd" d="M13.2812 13.8594V13.6953C13.2812 13.0755 13.3698 12.5052 13.5469 11.9844C13.724 11.4583 13.9818 11.0026 14.3203 10.6172C14.6589 10.2318 15.0755 9.93229 15.5703 9.71875C16.0651 9.5 16.6328 9.39062 17.2734 9.39062C17.9141 9.39062 18.4844 9.5 18.9844 9.71875C19.4844 9.93229 19.9036 10.2318 20.2422 10.6172C20.5859 11.0026 20.8464 11.4583 21.0234 11.9844C21.2005 12.5052 21.2891 13.0755 21.2891 13.6953V13.8594C21.2891 14.474 21.2005 15.0443 21.0234 15.5703C20.8464 16.0911 20.5859 16.5469 20.2422 16.9375C19.9036 17.3229 19.487 17.6224 18.9922 17.8359C18.4974 18.0495 17.9297 18.1562 17.2891 18.1562C16.6484 18.1562 16.0781 18.0495 15.5781 17.8359C15.0833 17.6224 14.6641 17.3229 14.3203 16.9375C13.9818 16.5469 13.724 16.0911 13.5469 15.5703C13.3698 15.0443 13.2812 14.474 13.2812 13.8594ZM15.5312 13.6953V13.8594C15.5312 14.2135 15.5625 14.5443 15.625 14.8516C15.6875 15.1589 15.7865 15.4297 15.9219 15.6641C16.0625 15.8932 16.2448 16.0729 16.4688 16.2031C16.6927 16.3333 16.9661 16.3984 17.2891 16.3984C17.6016 16.3984 17.8698 16.3333 18.0938 16.2031C18.3177 16.0729 18.4974 15.8932 18.6328 15.6641C18.7682 15.4297 18.8672 15.1589 18.9297 14.8516C18.9974 14.5443 19.0312 14.2135 19.0312 13.8594V13.6953C19.0312 13.3516 18.9974 13.0286 18.9297 12.7266C18.8672 12.4193 18.7656 12.1484 18.625 11.9141C18.4896 11.6745 18.3099 11.487 18.0859 11.3516C17.862 11.2161 17.5911 11.1484 17.2734 11.1484C16.9557 11.1484 16.6849 11.2161 16.4609 11.3516C16.2422 11.487 16.0625 11.6745 15.9219 11.9141C15.7865 12.1484 15.6875 12.4193 15.625 12.7266C15.5625 13.0286 15.5312 13.3516 15.5312 13.6953Z" fill="#B77100"/>
<path d="M10.3047 18V8.46094H13.8047V6.625H4.52344V8.46094H7.96875V18H10.3047Z" fill="#B77100"/>
<defs>
<linearGradient id="paint0_linear_4414_68308" x1="26" y1="2.01798" x2="26" y2="30.2696" gradientUnits="userSpaceOnUse">
<stop stop-color="#FFE899"/>
<stop offset="1" stop-color="#FFC83F"/>
</linearGradient>
</defs>
</svg>
