<svg width="153" height="32" viewBox="0 0 153 32" fill="none" xmlns="http://www.w3.org/2000/svg">
<path d="M88.5917 11.8674H86.2594V26.9242H88.5917V11.8674Z" fill="white"/>
<path d="M80.0858 19.2071C81.5606 19.2071 82.761 20.4076 82.761 21.8824C82.761 23.3572 81.5606 24.5576 80.0858 24.5576C78.6109 24.5576 77.4105 23.3572 77.4105 21.8824C77.4105 20.4076 78.5766 19.2071 80.0858 19.2071ZM80.0858 16.8749C77.3076 16.8749 75.0782 19.1385 75.0782 21.8824C75.0782 24.6605 77.3419 26.8899 80.0858 26.8899C82.8296 26.8899 85.0933 24.6262 85.0933 21.8824C85.0933 19.1385 82.8639 16.8749 80.0858 16.8749Z" fill="white"/>
<path d="M69.1104 16.8749C67.9443 16.8749 66.8468 17.2865 66.0236 17.9382V11.8331H63.6913V26.8899H66.0236V25.8267C66.8811 26.5127 67.9443 26.8899 69.1104 26.8899C71.8886 26.8899 74.1179 24.6263 74.1179 21.8824C74.1179 19.1386 71.8886 16.8749 69.1104 16.8749ZM69.1104 24.592C67.6356 24.592 66.4352 23.3915 66.4352 21.9167C66.4352 20.4419 67.6356 19.2415 69.1104 19.2415C70.5852 19.2415 71.7857 20.4419 71.7857 21.9167C71.7857 23.3915 70.5852 24.592 69.1104 24.592Z" fill="white"/>
<path d="M117.025 16.8749V17.6637C116.236 17.1836 115.31 16.8749 114.349 16.8749C111.571 16.8749 109.342 19.1385 109.342 21.8824C109.342 24.6262 111.606 26.8899 114.349 26.8899C115.344 26.8899 116.27 26.6155 117.025 26.101V26.8899H119.357V16.8406H117.025V16.8749ZM114.315 24.5919C112.84 24.5919 111.64 23.3915 111.64 21.9167C111.64 20.4419 112.84 19.2414 114.315 19.2414C115.79 19.2414 116.99 20.4419 116.99 21.9167C117.025 23.3915 115.824 24.5919 114.315 24.5919Z" fill="white"/>
<path d="M58.7181 16.8749C57.7235 16.8749 56.7974 17.2865 56.1115 17.9038C55.4255 17.2522 54.5338 16.8749 53.5048 16.8749C52.9904 16.8749 52.5102 16.9778 52.0643 17.1493V16.8749H49.7321V26.9242H52.0643V20.6477C52.0643 19.8588 52.716 19.2071 53.5048 19.2071C54.2937 19.2071 54.9453 19.8588 54.9453 20.6477V26.9242H57.2776V20.6477C57.2776 19.8588 57.9293 19.2071 58.7181 19.2071C59.507 19.2071 60.1586 19.8588 60.1586 20.6477V26.9242H62.4909V20.6477C62.4909 18.5898 60.8103 16.8749 58.7181 16.8749Z" fill="white"/>
<path d="M105.981 14.1997L101.865 24.1118L97.7492 14.1997H95.4169V26.9242H97.7492V19.8246L100.699 26.9242H103.031L105.981 19.8246V26.9242H108.313V14.1997H105.981Z" fill="white"/>
<path d="M123.027 17.1836V16.9092H120.695V26.9585H123.027V20.682C123.027 19.8931 123.679 19.2415 124.467 19.2415V16.9092C123.953 16.8749 123.473 16.9778 123.027 17.1836Z" fill="white"/>
<path d="M143.057 23.22H144.875C144.978 22.8084 145.046 22.3626 145.046 21.9167C145.046 19.1385 142.782 16.9092 140.039 16.9092C137.26 16.9092 135.031 19.1728 135.031 21.9167C135.031 24.6605 137.295 26.9242 140.039 26.9242C141.376 26.9242 142.577 26.4097 143.468 25.5523L141.788 23.906C141.308 24.3175 140.69 24.5919 140.004 24.5919C139.01 24.5919 138.118 24.0432 137.672 23.22H142.371H143.057ZM137.535 20.8877C137.946 19.8931 138.907 19.2071 140.039 19.2071C141.17 19.2071 142.131 19.8931 142.542 20.8877H137.535Z" fill="white"/>
<path d="M35.1897 19.413H32.686C31.8971 19.413 31.2455 18.7613 31.2455 17.9725C31.2455 17.1836 31.8971 16.532 32.686 16.532H35.1897C35.9786 16.532 36.6302 17.1836 36.6302 17.9725H38.9625C38.9625 15.8803 37.2819 14.1997 35.1897 14.1997H32.686C30.5938 14.1997 28.9132 15.8803 28.9132 17.9725C28.9132 20.0647 30.5938 21.7453 32.686 21.7453H35.1897C35.9786 21.7453 36.6302 22.3969 36.6302 23.1858C36.6302 23.9746 35.9786 24.6263 35.1897 24.6263H32.686C31.8971 24.6263 31.2455 23.9746 31.2455 23.1858H28.9132C28.9132 25.2779 30.5938 26.9585 32.686 26.9585H35.1897C37.2819 26.9585 38.9625 25.2779 38.9625 23.1858C38.9625 21.0936 37.2819 19.413 35.1897 19.413Z" fill="white"/>
<path d="M152.043 19.8589V17.5266H150.054V14.1997H147.721V17.5266H145.732V19.8589H147.721V23.1858C147.721 25.2779 149.402 26.9585 151.494 26.9585V24.592C150.705 24.592 150.054 23.9403 150.054 23.1515V19.8246H152.043V19.8589Z" fill="white"/>
<path d="M132.527 26.9242H135.82L130.229 21.3337L134.654 16.8749H131.361L128.137 20.1332V11.8674H125.805V26.9242H128.137V23.4258L128.583 22.98L132.527 26.9242Z" fill="white"/>
<path d="M41.5348 29.6337H44.0729L49.3205 16.8749H46.8167L44.313 22.9113L41.8092 16.8749H39.3055L43.044 25.9638L41.5348 29.6337Z" fill="white"/>
<path d="M11.0782 24.7978C13.2047 24.7978 14.9196 23.0829 14.9196 20.9564C14.9196 18.8299 13.2047 17.115 11.0782 17.115C8.95177 17.115 7.23687 18.8299 7.23687 20.9564C7.23687 23.0829 8.95177 24.7978 11.0782 24.7978Z" fill="#8B60F7"/>
<path d="M18.8982 13.1365C17.5606 11.7646 16.7031 9.87818 16.7031 7.8203C16.7031 5.76242 17.5606 3.87603 18.8982 2.53841L16.3601 0.000366211C14.3708 1.98965 13.1361 4.76778 13.1361 7.8203C13.1361 10.8728 14.3708 13.651 16.3944 15.6402H16.3601C17.732 17.0122 18.5552 18.8642 18.5552 20.9221C18.5552 25.0379 15.194 28.3991 11.0782 28.3991C6.96249 28.3991 3.56699 25.1065 3.56699 20.9564C3.56699 16.9779 6.6881 13.7196 10.6324 13.4795C10.1865 12.3819 9.84352 11.2158 9.67203 9.98107C4.21865 10.667 0 15.2973 0 20.9564C0 27.0615 4.93891 32.0004 11.0439 32.0004C17.149 32.0004 22.0879 27.0615 22.0879 20.9564C22.1222 17.9039 20.8875 15.1601 18.8982 13.1365Z" fill="#8B60F7"/>
</svg>
