<svg width="20" height="15" viewBox="0 0 20 15" fill="none" xmlns="http://www.w3.org/2000/svg">
<path d="M13.5002 6.66665C13.0399 6.66665 12.6668 7.03974 12.6668 7.49998C12.6668 7.96022 13.0399 8.33331 13.5002 8.33331C13.9604 8.33331 14.3335 7.96022 14.3335 7.49998C14.3335 7.03974 13.9604 6.66665 13.5002 6.66665Z" fill="white"/>
<path fill-rule="evenodd" clip-rule="evenodd" d="M0.75 2.25C0.75 1.14543 1.64543 0.25 2.75 0.25H16C17.1046 0.25 18 1.14544 18 2.25V3.56213C18.7329 3.85887 19.2498 4.5774 19.2498 5.41669V9.58335C19.2498 10.4226 18.7329 11.1412 18 11.4379V12.75C18 13.8546 17.1046 14.75 16 14.75H2.75C1.64543 14.75 0.75 13.8546 0.75 12.75V2.25ZM16.5 2.25V3.41669H11.4165C10.3119 3.41669 9.4165 4.31212 9.4165 5.41669V9.58335C9.4165 10.6879 10.3119 11.5834 11.4165 11.5834H16.5V12.75C16.5 13.0262 16.2762 13.25 16 13.25H2.75C2.47385 13.25 2.25 13.0262 2.25 12.75V2.25C2.25 1.97386 2.47386 1.75 2.75 1.75H16C16.2762 1.75 16.5 1.97385 16.5 2.25ZM11.4165 4.91669C11.1404 4.91669 10.9165 5.14054 10.9165 5.41669V9.58335C10.9165 9.8595 11.1404 10.0834 11.4165 10.0834H17.2498C17.526 10.0834 17.7498 9.8595 17.7498 9.58335V5.41669C17.7498 5.14054 17.526 4.91669 17.2498 4.91669H11.4165Z" fill="white"/>
</svg>
