<svg width="24" height="24" viewBox="0 0 24 24" fill="none" xmlns="http://www.w3.org/2000/svg">
<path fill-rule="evenodd" clip-rule="evenodd" d="M10.5 7.5C10.5 9.15685 9.15685 10.5 7.5 10.5C5.84315 10.5 4.5 9.15685 4.5 7.5C4.5 5.84315 5.84315 4.5 7.5 4.5C9.15685 4.5 10.5 5.84315 10.5 7.5ZM9 7.5C9 8.32843 8.32843 9 7.5 9C6.67157 9 6 8.32843 6 7.5C6 6.67157 6.67157 6 7.5 6C8.32843 6 9 6.67157 9 7.5Z" fill="#8B60F7"/>
<path fill-rule="evenodd" clip-rule="evenodd" d="M24 4V20C24 22.2091 22.2091 24 20 24H4C1.88809 24 0.158448 22.3633 0.0102899 20.2891L0.00375366 20.2841L0.00942357 20.2767C0.00317535 20.1853 0 20.093 0 20V4C0 1.79086 1.79086 0 4 0H20C22.2091 0 24 1.79086 24 4ZM4 1.5H20C21.3807 1.5 22.5 2.61929 22.5 4V11.2637L21.6278 10.1306C20.1266 8.18058 17.1859 8.18058 15.6847 10.1306L10.6824 16.6288L9.72151 15.3806C8.22037 13.4306 5.2796 13.4306 3.77846 15.3806L1.5 18.3404V4C1.5 2.61929 2.61929 1.5 4 1.5ZM20.4392 11.0456L22.5 13.7227V20C22.5 21.3807 21.3807 22.5 20 22.5H8.05574L16.8733 11.0456C17.774 9.87559 19.5385 9.87559 20.4392 11.0456ZM9.73591 17.8584L6.16277 22.5H4C2.85443 22.5 1.88883 21.7295 1.59316 20.6785L4.96707 16.2956C5.86775 15.1256 7.63222 15.1256 8.5329 16.2956L9.73591 17.8584Z" fill="#8B60F7"/>
</svg>
