<svg width="24" height="24" viewBox="0 0 24 24" fill="none" xmlns="http://www.w3.org/2000/svg">
<g id="Icon">
<g id="Union">
<path fill-rule="evenodd" clip-rule="evenodd" d="M11.375 8.875C11.375 10.2557 10.2557 11.375 8.875 11.375C7.49429 11.375 6.375 10.2557 6.375 8.875C6.375 7.49429 7.49429 6.375 8.875 6.375C10.2557 6.375 11.375 7.49429 11.375 8.875ZM9.875 8.875C9.875 9.42728 9.42728 9.875 8.875 9.875C8.32272 9.875 7.875 9.42728 7.875 8.875C7.875 8.32272 8.32272 7.875 8.875 7.875C9.42728 7.875 9.875 8.32272 9.875 8.875Z" fill="white"/>
<path fill-rule="evenodd" clip-rule="evenodd" d="M3 5C3 3.89543 3.89543 3 5 3H19C20.1046 3 21 3.89543 21 5V19C21 20.1046 20.1046 21 19 21H5C3.89543 21 3 20.1046 3 19V5ZM5 4.5H19C19.2761 4.5 19.5 4.72386 19.5 5V10.7529C17.9175 9.32317 15.3797 9.49075 14.0211 11.2556L11.0118 15.1648C9.50409 13.2431 6.58462 13.2526 5.0908 15.1931L4.5 15.9606V5C4.5 4.72386 4.72386 4.5 5 4.5ZM18.7755 12.1706L19.5 13.1118V19C19.5 19.2761 19.2761 19.5 19 19.5H9.5675L15.2097 12.1706C16.1103 11.0006 17.8748 11.0006 18.7755 12.1706ZM10.0654 16.3941L7.67453 19.5H5C4.72386 19.5 4.5 19.2761 4.5 19V18.4196L6.27941 16.1081C7.18009 14.9381 8.94455 14.9381 9.84523 16.1081L10.0654 16.3941Z" fill="white"/>
</g>
</g>
</svg>
