<svg width="16" height="16" viewBox="0 0 16 16" fill="none" xmlns="http://www.w3.org/2000/svg">
<path d="M2 13.75C2 14.0261 2.22386 14.25 2.5 14.25L13.75 14.25C14.0261 14.25 14.25 14.0261 14.25 13.75V9.31809C14.25 9.20764 14.1605 9.11809 14.05 9.11809H13.2C13.0895 9.11809 13 9.20764 13 9.31809V13L3.25 13L3.25 3.25L6.9272 3.25C7.03765 3.25 7.1272 3.16046 7.1272 3.05V2.2C7.1272 2.08954 7.03765 2 6.9272 2H2.5C2.22386 2 2 2.22386 2 2.5V13.75ZM13.771 2.26422C13.8933 2.25481 13.9952 2.35668 13.9857 2.47897L13.6834 6.40895C13.6703 6.57932 13.4634 6.65586 13.3426 6.53503L11.9706 5.16305L7.01154 10.1221C6.93343 10.2002 6.8068 10.2002 6.7287 10.1221L6.12766 9.52109C6.04955 9.44298 6.04955 9.31635 6.12766 9.23825L11.0867 4.27916L9.71493 2.90736C9.59411 2.78653 9.67065 2.57963 9.84101 2.56652L13.771 2.26422Z" fill="#8B60F7"/>
</svg>
