<svg width="16" height="16" viewBox="0 0 16 16" fill="none" xmlns="http://www.w3.org/2000/svg">
<path fill-rule="evenodd" clip-rule="evenodd" d="M14.9282 11.5L9.73203 2.5C8.96223 1.16667 7.03773 1.16666 6.26793 2.5L1.07178 11.5C0.301976 12.8333 1.26422 14.5 2.80383 14.5H13.1961C14.7357 14.5 15.698 12.8333 14.9282 11.5ZM7.99998 5.5C8.41419 5.5 8.74998 5.83579 8.74998 6.25V9.75C8.74998 10.1642 8.41419 10.5 7.99998 10.5C7.58576 10.5 7.24998 10.1642 7.24998 9.75V6.25C7.24998 5.83579 7.58576 5.5 7.99998 5.5ZM8.74998 11.75C8.74998 12.1642 8.41419 12.5 7.99998 12.5C7.58576 12.5 7.24998 12.1642 7.24998 11.75C7.24998 11.3358 7.58576 11 7.99998 11C8.41419 11 8.74998 11.3358 8.74998 11.75Z" fill="#BE283A"/>
</svg>
