<svg width="26" height="36" viewBox="0 0 26 36" fill="none" xmlns="http://www.w3.org/2000/svg">
<g id="Group">
<path id="Vector" d="M13 27.8677C15.3759 27.8677 17.302 25.9416 17.302 23.5657C17.302 21.1897 15.3759 19.2637 13 19.2637C10.6241 19.2637 8.698 21.1897 8.698 23.5657C8.698 25.9416 10.6241 27.8677 13 27.8677Z" fill="#8B60F7"/>
<path id="Vector_2" d="M21.793 14.7726L21.8092 14.7564C20.2792 13.23 19.3288 11.1222 19.3288 8.7948C19.3288 6.4728 20.2738 4.3668 21.7984 2.8422L18.9598 0C16.7098 2.25 15.3184 5.3586 15.3184 8.793C15.3184 12.231 16.7152 15.345 18.9706 17.595L18.9508 17.6076C20.4772 19.1322 21.424 21.24 21.424 23.5638C21.424 28.2078 17.6458 31.986 13.0018 31.986C8.35781 31.986 4.57961 28.2078 4.57961 23.5638C4.57961 19.0818 8.10041 15.417 12.5194 15.1668C12.0046 13.9266 11.6446 12.609 11.4466 11.2374C5.31401 12.0042 0.565613 17.2242 0.565613 23.5656C0.565613 30.4326 6.13301 36 13 36C19.867 36 25.4344 30.4326 25.4344 23.5656C25.4344 20.1312 24.043 17.0226 21.793 14.7726Z" fill="#8B60F7"/>
</g>
</svg>
