<svg width="261" height="32" viewBox="0 0 261 32" fill="none" xmlns="http://www.w3.org/2000/svg">
<path fill-rule="evenodd" clip-rule="evenodd" d="M66.6338 0H70.984V25.92H66.6338V0ZM15.7444 4.58077C16.7926 3.55184 16.8081 1.86804 15.7792 0.819897C14.7503 -0.228248 13.0665 -0.243824 12.0184 0.785107C10.9703 1.81404 10.9547 3.49784 11.9836 4.54598C13.0125 5.59413 14.6963 5.60971 15.7444 4.58077ZM25.7712 14.2412C26.4627 11.3248 24.6592 8.40002 21.7428 7.70847C18.8265 7.01691 15.9018 8.8205 15.2102 11.7369C14.5187 14.6533 16.3222 17.5781 19.2386 18.2696C22.1549 18.9612 25.0796 17.1576 25.7712 14.2412ZM15.7807 21.4196C16.8097 22.4677 16.7941 24.1515 15.746 25.1804C14.6978 26.2094 13.0141 26.1938 11.9852 25.1457C10.9562 24.0975 10.9718 22.4137 12.0199 21.3848C13.0681 20.3558 14.7518 20.3714 15.7807 21.4196ZM1.66254 10.1534C0.199646 9.09603 -0.377306 7.19207 0.252606 5.50052C0.866149 3.83681 2.49789 2.77216 4.26776 2.88079C6.03763 2.98942 7.52694 4.24562 7.93243 5.97187L7.95405 6.05403L8.00162 6.17079L8.03189 6.28322C8.31466 7.21872 8.9608 8.00173 9.82562 8.4569C10.6904 8.91208 11.7017 9.00139 12.6329 8.70484C12.9849 8.57733 13.3705 8.57733 13.7226 8.70484C14.5584 9.01292 14.9863 9.9403 14.6782 10.7762C14.3702 11.6121 13.4428 12.0399 12.6069 11.7319C12.2743 11.6084 11.9926 11.3769 11.8069 11.0746L11.7421 10.9751C11.3134 10.3203 10.6836 9.82254 9.94752 9.55673C8.79839 9.13094 7.51234 9.30956 6.52274 10.0324C5.11425 11.1612 3.12544 11.2107 1.66254 10.1534ZM1.67806 15.8281C0.218268 16.8832 -0.360829 18.781 0.261206 20.4714C0.879905 22.1275 2.50851 23.1844 4.27298 23.075C6.03745 22.9656 7.52301 21.7155 7.93238 19.9957L7.95401 19.9135C7.96207 19.8755 7.97217 19.838 7.98428 19.8011L8.01455 19.6887C8.29636 18.7535 8.94166 17.9705 9.80578 17.5153C10.6699 17.06 11.6806 16.9706 12.6112 17.267C12.9617 17.3946 13.346 17.3946 13.6966 17.267C14.2373 17.0678 14.6306 16.5951 14.7284 16.0272C14.8261 15.4593 14.6135 14.8823 14.1706 14.5137C13.7276 14.145 13.1216 14.0407 12.5809 14.24C12.2474 14.362 11.9653 14.5938 11.7809 14.8973L11.7204 14.9968C11.1716 15.8278 10.3071 16.3985 9.32723 16.5765C8.34738 16.7545 7.33735 16.5244 6.53134 15.9395C5.12149 14.8185 3.13786 14.773 1.67806 15.8281ZM46.6732 7.13083H49.9336V9.39993C52.0653 7.57513 54.9706 6.74291 57.8747 7.31841C62.273 8.19004 65.4428 12.048 65.4447 16.5319C65.4439 17.0786 65.3947 17.6242 65.2976 18.1622H61.9507L61.9521 18.1578H51.3238C52.0768 20.4599 54.2266 22.0157 56.6492 22.0109C57.9619 22.0102 59.232 21.5445 60.234 20.6963L62.7031 23.1698C59.5376 26.3455 54.5694 26.8421 50.8379 24.3558C50.5197 24.1438 50.2181 23.9152 49.9336 23.6717V25.92H46.6732V23.6444C45.0269 25.0652 42.8823 25.9243 40.5372 25.9243C35.3476 25.9243 31.1406 21.7173 31.1406 16.5276C31.1406 11.3379 35.3476 7.13083 40.5372 7.13083C42.8823 7.13083 45.0269 7.98998 46.6732 9.41071V7.13083ZM62.018 14.8973H51.2579C51.5918 13.7178 52.3117 12.6509 53.3533 11.8947C55.3155 10.4702 57.9722 10.4729 59.9316 11.9013C60.9686 12.6573 61.6852 13.7214 62.018 14.8973ZM43.2247 11.3588C45.1901 12.1742 46.5112 14.0281 46.6593 16.1281C46.6478 16.3952 46.6477 16.6618 46.6589 16.9274C46.5631 18.2638 45.9893 19.5264 45.0353 20.4797C43.9867 21.5276 42.5645 22.1157 41.082 22.1146C38.8202 22.1146 36.7811 20.7518 35.916 18.662C35.0508 16.5721 35.53 14.1668 37.13 12.568C38.7299 10.9693 41.1355 10.492 43.2247 11.3588ZM72.1559 13.7989V9.44867H74.664V6.9189C74.6592 3.12185 77.7296 0.037859 81.5265 0.0259366H84.0865V4.38053H81.5265C80.1331 4.3924 79.0098 5.5254 79.0098 6.9189V9.44867H84.0864V13.7989H79.0098V25.9459H74.664V13.7989H72.1559ZM82.1362 21.5956H86.4863V25.9459H82.1362V21.5956ZM101.017 25.8482V5.27871e-05H96.8647V25.8482H101.017ZM180.491 6.30699V25.8482H176.339V6.30699H180.491ZM180.491 4.13575V5.27871e-05H176.339V4.13575H180.491ZM210.782 25.8482C209.536 25.8482 208.377 25.538 207.304 24.9176C206.266 24.2973 205.436 23.4701 204.813 22.4362C204.19 21.3678 203.879 20.2133 203.879 18.9726V5.27871e-05H208.031V6.2553H213.273V10.3393H208.031V18.9726C208.066 19.7308 208.342 20.3856 208.861 20.937C209.415 21.454 210.072 21.7125 210.834 21.7125H214.674V25.8482H210.782ZM221.951 6.30699V25.8482H217.799V6.30699H221.951ZM221.951 4.13575V5.27871e-05H217.799V4.13575H221.951ZM234.493 25.8482C235.739 25.8482 236.88 25.538 237.919 24.9177C238.991 24.2973 239.822 23.4702 240.41 22.4362C241.033 21.3679 241.344 20.2133 241.344 18.9726V13.2343C241.344 11.9936 241.033 10.8391 240.41 9.77066C239.787 8.70227 238.939 7.8579 237.867 7.23755C236.829 6.61719 235.687 6.30701 234.441 6.30701H231.95C230.704 6.30701 229.545 6.61719 228.472 7.23755C227.434 7.8579 226.604 8.70227 225.981 9.77066C225.358 10.8391 225.047 11.9936 225.047 13.2343V18.9726C225.047 20.2133 225.358 21.3679 225.981 22.4362C226.604 23.4702 227.452 24.2973 228.524 24.9177C229.597 25.538 230.756 25.8482 232.002 25.8482H234.493ZM234.441 10.4427C235.202 10.4427 235.842 10.7184 236.361 11.2699C236.915 11.7868 237.192 12.4416 237.192 13.2343L237.244 18.9726C237.209 19.7308 236.915 20.3856 236.361 20.937C235.842 21.454 235.202 21.7125 234.441 21.7125H231.95C231.189 21.7125 230.531 21.454 229.978 20.937C229.459 20.3856 229.199 19.7308 229.199 18.9726V13.2343C229.199 12.4761 229.459 11.8213 229.978 11.2699C230.531 10.7184 231.189 10.4427 231.95 10.4427H234.441ZM244.459 6.30701H253.802C255.047 6.30701 256.206 6.61719 257.279 7.23755C258.352 7.8579 259.182 8.70227 259.77 9.77066C260.393 10.8046 260.704 11.9419 260.704 13.1826L260.756 25.8482H256.604V13.1826C256.604 12.4244 256.327 11.7868 255.774 11.2699C255.255 10.7184 254.615 10.4427 253.853 10.4427H248.611V25.8482H244.511L244.459 6.30701ZM183.587 6.15188H193.033C194.278 6.15188 195.437 6.46206 196.51 7.08241C197.583 7.70277 198.43 8.54714 199.053 9.61553C199.676 10.6839 199.988 11.8385 199.988 13.0792V18.9209C199.988 20.1616 199.676 21.3161 199.053 22.3845C198.43 23.4529 197.583 24.2973 196.51 24.9176C195.437 25.538 194.278 25.8481 193.033 25.8481H191.943L189.14 21.6608H193.033C193.794 21.6608 194.434 21.4023 194.953 20.8853C195.507 20.3339 195.783 19.6791 195.783 18.9209V13.0792C195.783 12.321 195.507 11.6834 194.953 11.1664C194.434 10.615 193.794 10.3393 193.033 10.3393H187.739V32H183.587V6.15188ZM163.385 9.77066C162.762 10.8046 162.451 11.9419 162.451 13.1826L162.503 25.8482H166.603V13.1826C166.603 12.4244 166.863 11.7868 167.382 11.2699C167.935 10.7184 168.593 10.4427 169.354 10.4427H173.247L173.195 6.30701H169.354C168.108 6.30701 166.949 6.61719 165.877 7.23755C164.839 7.8579 164.008 8.70227 163.385 9.77066ZM146.415 24.9177C147.487 25.538 148.646 25.8482 149.892 25.8482H159.338L156.536 21.7125H149.892C149.131 21.7125 148.473 21.4368 147.92 20.8854C147.401 20.3339 147.141 19.6791 147.141 18.9209L147.089 13.2343C147.124 12.4416 147.401 11.7868 147.92 11.2699C148.473 10.7184 149.131 10.4427 149.892 10.4427H159.338L156.536 6.30701H149.892C148.646 6.30701 147.487 6.61719 146.415 7.23755C145.342 7.8579 144.494 8.70227 143.872 9.77066C143.249 10.8391 142.937 11.9936 142.937 13.2343L142.989 18.9209C142.989 20.1616 143.283 21.3162 143.872 22.3845C144.494 23.4529 145.342 24.2973 146.415 24.9177ZM133.853 21.6608H123.577L126.328 25.8482H133.853C135.48 25.8482 136.864 25.2795 138.005 24.1422C139.182 22.9704 139.787 21.5746 139.822 19.9548C139.822 18.3005 139.234 16.9047 138.057 15.7674C136.881 14.5956 135.462 14.0098 133.801 14.0098H129.494C129.009 14.0098 128.577 13.8374 128.196 13.4928C127.85 13.1137 127.677 12.6829 127.677 12.2004C127.712 11.7179 127.902 11.3043 128.248 10.9597C128.594 10.615 129.009 10.4427 129.494 10.4427H139.822L137.019 6.30701H129.494C127.867 6.30701 126.466 6.8929 125.29 8.06469C124.148 9.202 123.56 10.5806 123.525 12.2004C123.56 13.8202 124.148 15.216 125.29 16.3878C126.466 17.5251 127.85 18.0938 129.442 18.0938H133.853C134.338 18.0938 134.753 18.2833 135.099 18.6624C135.48 19.0071 135.67 19.4206 135.67 19.9031C135.67 20.3856 135.48 20.7992 135.099 21.1438C134.753 21.4885 134.338 21.6608 133.853 21.6608ZM113.455 6.30701H104.113L104.165 25.8482H108.265V10.4427H113.507C114.268 10.4427 114.908 10.7184 115.427 11.2699C115.981 11.7868 116.258 12.4244 116.258 13.1826V25.8482H120.41L120.358 13.1826C120.358 11.9419 120.046 10.8046 119.424 9.77066C118.835 8.70227 118.005 7.8579 116.932 7.23755C115.86 6.61719 114.701 6.30701 113.455 6.30701Z" fill="white"/>
</svg>
