<svg width="75" height="20" viewBox="0 0 75 20" fill="none" xmlns="http://www.w3.org/2000/svg">
<path id="Union" fill-rule="evenodd" clip-rule="evenodd" d="M35.5298 0H36.8671V8.05645H35.5298V0ZM30.3961 2.21641H29.3938V2.92504C28.8877 2.48345 28.2285 2.21641 27.5076 2.21641C25.9123 2.21641 24.6191 3.52405 24.6191 5.13711C24.6191 6.75016 25.9123 8.05781 27.5076 8.05781C28.2285 8.05781 28.8877 7.79076 29.3938 7.34917V8.05646H30.3961V7.35766C30.4836 7.43333 30.5763 7.5044 30.6741 7.57029C31.8211 8.34308 33.3484 8.18872 34.3215 7.20164L33.5625 6.43282C33.2545 6.69646 32.864 6.84123 32.4605 6.84142C31.7158 6.84293 31.0549 6.35936 30.8235 5.64382H34.0906L34.0902 5.64519H35.1191C35.1489 5.47796 35.164 5.30839 35.1643 5.13846C35.1637 3.74475 34.1893 2.54563 32.8372 2.27471C31.9445 2.09583 31.0514 2.3545 30.3961 2.92169V2.21641ZM30.8032 4.63038H34.1109C34.0086 4.26488 33.7883 3.93413 33.4695 3.69916C32.8672 3.25519 32.0505 3.25437 31.4473 3.69712C31.1271 3.93216 30.9058 4.26377 30.8032 4.63038ZM29.3896 5.01295C29.344 4.36022 28.9379 3.78399 28.3337 3.53053C27.6915 3.26112 26.952 3.40947 26.4602 3.9064C25.9684 4.40333 25.8211 5.15094 26.087 5.80052C26.353 6.45009 26.9798 6.87367 27.6751 6.87367C28.1308 6.87402 28.568 6.69122 28.8904 6.36551C29.1836 6.06921 29.36 5.67675 29.3895 5.26138C29.386 5.17884 29.386 5.09595 29.3896 5.01295ZM37.2273 2.93684V4.28899H37.9983V8.06452H39.3342V4.28899H40.8948V2.93684H39.3342V2.15054C39.3342 1.71741 39.6795 1.36525 40.1079 1.36156H40.8948V0.00806163H40.1079C38.9407 0.0117674 37.9968 0.970335 37.9983 2.15054V2.93684H37.2273ZM41.6326 6.71236H40.2953V8.06451H41.6326V6.71236ZM25.8954 10.0537V18.0879H24.6191V10.0537H25.8954ZM50.3261 18.0879V12.0141H49.0497V18.0879H50.3261ZM50.3261 10.0537V11.3392H49.0497V10.0537H50.3261ZM58.5687 17.7986C58.8984 17.9915 59.2547 18.0879 59.6376 18.0879H60.8342V16.8024H59.6536C59.4196 16.8024 59.2175 16.7221 59.0473 16.5614C58.8877 16.39 58.8027 16.1865 58.792 15.9508V13.2674H60.4034V11.998H58.792V10.0537H57.5156V15.9508C57.5156 16.3364 57.6114 16.6953 57.8028 17.0274C57.9943 17.3487 58.2496 17.6058 58.5687 17.7986ZM63.0711 18.0879V12.0141H61.7947V18.0879H63.0711ZM63.0711 10.0537V11.3392H61.7947V10.0537H63.0711ZM67.9796 17.7987C67.6605 17.9915 67.3094 18.0879 66.9265 18.0879H66.1607C65.7778 18.0879 65.4215 17.9915 65.0918 17.7987C64.762 17.6058 64.5014 17.3487 64.31 17.0274C64.1185 16.6953 64.0228 16.3364 64.0228 15.9508V14.1672C64.0228 13.7816 64.1185 13.4227 64.31 13.0907C64.5014 12.7586 64.7567 12.4961 65.0758 12.3033C65.4055 12.1105 65.7618 12.0141 66.1448 12.0141H66.9106C67.2935 12.0141 67.6445 12.1105 67.9636 12.3033C68.2933 12.4961 68.5539 12.7586 68.7454 13.0907C68.9368 13.4227 69.0326 13.7816 69.0326 14.1672V15.9508C69.0326 16.3364 68.9368 16.6953 68.7454 17.0274C68.5646 17.3487 68.3093 17.6058 67.9796 17.7987ZM67.5009 13.5566C67.3414 13.3852 67.1446 13.2995 66.9106 13.2995H66.1448C65.9108 13.2995 65.7087 13.3852 65.5385 13.5566C65.3789 13.728 65.2992 13.9316 65.2992 14.1672V15.9508C65.2992 16.1865 65.3789 16.39 65.5385 16.5614C65.7087 16.7221 65.9108 16.8024 66.1448 16.8024H66.9106C67.1446 16.8024 67.3414 16.7221 67.5009 16.5614C67.6711 16.39 67.7615 16.1865 67.7721 15.9508L67.7562 14.1672C67.7562 13.9208 67.6711 13.7173 67.5009 13.5566ZM72.8621 12.0141H69.9902L70.0062 18.0879H71.2666V13.2995H72.878C73.112 13.2995 73.3088 13.3852 73.4683 13.5566C73.6385 13.7173 73.7236 13.9155 73.7236 14.1512V18.0879H75L74.984 14.1512C74.984 13.7655 74.8883 13.412 74.6969 13.0907C74.516 12.7586 74.2608 12.4961 73.931 12.3033C73.6013 12.1105 73.245 12.0141 72.8621 12.0141ZM54.1815 11.9659H51.2777V20H52.5541V13.2674H54.1815C54.4155 13.2674 54.6123 13.3531 54.7718 13.5245C54.942 13.6852 55.0271 13.8833 55.0271 14.119V15.9347C55.0271 16.1704 54.942 16.3739 54.7718 16.5453C54.6123 16.706 54.4155 16.7863 54.1815 16.7863H52.9849L53.8464 18.0879H54.1815C54.5644 18.0879 54.9207 17.9915 55.2505 17.7986C55.5802 17.6058 55.8408 17.3434 56.0322 17.0113C56.2237 16.6792 56.3194 16.3204 56.3194 15.9347V14.119C56.3194 13.7334 56.2237 13.3745 56.0322 13.0424C55.8408 12.7104 55.5802 12.4479 55.2505 12.2551C54.9207 12.0623 54.5644 11.9659 54.1815 11.9659ZM44.7806 14.1512C44.7806 13.7655 44.8763 13.412 45.0677 13.0907C45.2592 12.7586 45.5145 12.4961 45.8336 12.3033C46.1633 12.1105 46.5196 12.0141 46.9025 12.0141H48.0832L48.0991 13.2995H46.9025C46.6685 13.2995 46.4664 13.3852 46.2963 13.5566C46.1367 13.7173 46.0569 13.9155 46.0569 14.1512V18.0879H44.7965L44.7806 14.1512ZM40.9199 18.0879C40.537 18.0879 40.1807 17.9915 39.8509 17.7987C39.5212 17.6058 39.2606 17.3434 39.0692 17.0113C38.8883 16.6792 38.7979 16.3204 38.7979 15.9347L38.782 14.1672C38.782 13.7816 38.8777 13.4227 39.0692 13.0907C39.2606 12.7586 39.5212 12.4961 39.8509 12.3033C40.1807 12.1105 40.537 12.0141 40.9199 12.0141H42.9621L43.8237 13.2995H40.9199C40.6859 13.2995 40.4838 13.3852 40.3136 13.5566C40.1541 13.7173 40.069 13.9208 40.0583 14.1672L40.0743 15.9347C40.0743 16.1704 40.1541 16.3739 40.3136 16.5453C40.4838 16.7167 40.6859 16.8024 40.9199 16.8024H42.9621L43.8237 18.0879H40.9199ZM32.8305 16.7864H35.9895C36.1384 16.7864 36.2661 16.7328 36.3724 16.6257C36.4894 16.5185 36.5479 16.39 36.5479 16.24C36.5479 16.0901 36.4894 15.9615 36.3724 15.8544C36.2661 15.7366 36.1384 15.6776 35.9895 15.6776H34.6334C34.1441 15.6776 33.7186 15.5009 33.357 15.1474C33.006 14.7832 32.8252 14.3493 32.8145 13.8459C32.8252 13.3424 33.006 12.9139 33.357 12.5604C33.7186 12.1962 34.1494 12.0141 34.6493 12.0141H36.9628L37.8243 13.2995H34.6493C34.5004 13.2995 34.3728 13.3531 34.2664 13.4602C34.16 13.5673 34.1015 13.6959 34.0909 13.8459C34.0909 13.9958 34.1441 14.1297 34.2505 14.2476C34.3675 14.3547 34.5004 14.4082 34.6493 14.4082H35.9736C36.4841 14.4082 36.9202 14.5904 37.2819 14.9546C37.6435 15.3081 37.8243 15.7419 37.8243 16.2561C37.8137 16.7596 37.6275 17.1934 37.2659 17.5576C36.9149 17.9111 36.4894 18.0879 35.9895 18.0879H33.6761L32.8305 16.7864ZM26.8471 12.0141H29.719C30.1019 12.0141 30.4582 12.1105 30.7879 12.3033C31.1176 12.4961 31.3729 12.7586 31.5537 13.0907C31.7452 13.412 31.8409 13.7655 31.8409 14.1512L31.8569 18.0879H30.5805V14.1512C30.5805 13.9155 30.4954 13.7173 30.3252 13.5566C30.1657 13.3852 29.9689 13.2995 29.7349 13.2995H28.1235V18.0879H26.8631L26.8471 12.0141ZM11.951 3.55147C12.7466 2.76176 12.7584 1.46945 11.9774 0.664995C11.1964 -0.139455 9.91833 -0.15141 9.12274 0.638294C8.32715 1.428 8.31533 2.72031 9.09634 3.52477C9.87734 4.32922 11.1554 4.34117 11.951 3.55147ZM16.5042 5.95197C18.7179 6.48274 20.0869 8.72753 19.562 10.9659C19.037 13.2042 16.817 14.5884 14.6033 14.0577C12.3896 13.5269 11.0206 11.2821 11.5455 9.04378C12.0704 6.80545 14.2905 5.4212 16.5042 5.95197ZM11.9522 19.3617C12.7478 18.572 12.7596 17.2797 11.9786 16.4752C11.1976 15.6708 9.91949 15.6588 9.1239 16.4485C8.32831 17.2382 8.31649 18.5306 9.09749 19.335C9.8785 20.1395 11.1566 20.1514 11.9522 19.3617ZM0.191744 4.25737C-0.286399 5.55563 0.151544 7.01692 1.26198 7.82843C2.37241 8.63995 3.88204 8.60195 4.95117 7.73559C5.70234 7.18081 6.67854 7.04371 7.5508 7.37051C8.10954 7.57452 8.5876 7.95657 8.91298 8.45911L8.96222 8.53545C9.10316 8.76752 9.31696 8.94513 9.56946 9.03992C10.2039 9.27638 10.9079 8.94799 11.1417 8.30644C11.3756 7.6649 11.0508 6.95314 10.4163 6.71668C10.1491 6.61882 9.85637 6.61882 9.58915 6.71668C8.88231 6.94429 8.11472 6.87574 7.45827 6.52639C6.80182 6.17705 6.31136 5.57609 6.09671 4.85809L6.07374 4.7718L6.03763 4.68219L6.02122 4.61913C5.71343 3.29424 4.58295 2.3301 3.2395 2.24673C1.89606 2.16336 0.657462 2.98048 0.191744 4.25737ZM0.198272 15.7475C-0.273892 14.4501 0.165679 12.9936 1.27376 12.1838C2.38183 11.374 3.88753 11.4089 4.9577 12.2693C5.56952 12.7182 6.33619 12.8948 7.07996 12.7582C7.82372 12.6216 8.47997 12.1836 8.89653 11.5457L8.94249 11.4694C9.08245 11.2365 9.29658 11.0586 9.54972 10.9649C9.96016 10.812 10.4201 10.892 10.7564 11.175C11.0926 11.4579 11.254 11.9007 11.1798 12.3366C11.1056 12.7725 10.807 13.1352 10.3966 13.2882C10.1305 13.3861 9.83879 13.3861 9.5727 13.2882C8.86629 13.0607 8.09914 13.1293 7.44321 13.4787C6.78729 13.8281 6.29746 14.429 6.08355 15.1468L6.06057 15.2331C6.05139 15.2614 6.04372 15.2902 6.0376 15.3193L6.02118 15.3824C5.71044 16.7024 4.58281 17.6618 3.24347 17.7458C1.90412 17.8298 0.667904 17.0185 0.198272 15.7475Z" fill="white"/>
</svg>
