<svg width="20" height="20" viewBox="0 0 20 20" fill="none" xmlns="http://www.w3.org/2000/svg">
<g id="interactive/upload">
<path id="Union" d="M9.55824 2.63142C9.71779 2.47187 9.94216 2.41661 10.1466 2.46567C10.2551 2.4916 10.358 2.54689 10.4426 2.63154L14.2428 6.43212C14.3405 6.52975 14.3405 6.68804 14.2428 6.78567L13.4915 7.53698C13.3939 7.63461 13.2356 7.63461 13.138 7.53698L10.7813 5.18032L10.7813 14.498C10.7813 14.6361 10.6694 14.748 10.5313 14.748H9.46881C9.33074 14.748 9.21881 14.6361 9.21881 14.498L9.21881 5.18117L6.86289 7.53709C6.76525 7.63473 6.60696 7.63473 6.50933 7.53709L5.75803 6.78579C5.6604 6.68816 5.6604 6.52987 5.75803 6.43224L9.55824 2.63142ZM2.90625 17.7188C2.56107 17.7188 2.28125 17.439 2.28125 17.0938V14.0625C2.28125 13.9245 2.39318 13.8125 2.53125 13.8125H3.59375C3.73182 13.8125 3.84375 13.9245 3.84375 14.0625V16.1563H16.1562V14.0625C16.1562 13.9245 16.2682 13.8125 16.4062 13.8125H17.4688C17.6068 13.8125 17.7188 13.9245 17.7188 14.0625V17.0938C17.7188 17.439 17.4389 17.7188 17.0938 17.7188H2.90625Z" fill="#8B60F7"/>
</g>
</svg>
